<svg width="170" height="43" viewBox="0 0 170 43" fill="none" xmlns="http://www.w3.org/2000/svg">
<mask id="mask0_2_676" style="mask-type:alpha" maskUnits="userSpaceOnUse" x="0" y="-2" width="49" height="46">
<path d="M5.35986 0.992188H48.0039" stroke="#A85535" stroke-width="4" stroke-miterlimit="10"/>
<path d="M5.1543 2.54492H47.7983" stroke="#A85535" stroke-width="4" stroke-miterlimit="10"/>
<path d="M4.94775 4.09814H47.5918" stroke="#A85535" stroke-width="4" stroke-miterlimit="10"/>
<path d="M4.74121 5.65088H47.3857" stroke="#A85535" stroke-width="4" stroke-miterlimit="10"/>
<path d="M4.53516 7.20312H47.1796" stroke="#A85535" stroke-width="4" stroke-miterlimit="10"/>
<path d="M4.3291 8.75635H46.9735" stroke="#A85535" stroke-width="4" stroke-miterlimit="10"/>
<path d="M4.12305 10.3091H46.7671" stroke="#A85535" stroke-width="4" stroke-miterlimit="10"/>
<path d="M3.9165 11.8618H46.5605" stroke="#A85535" stroke-width="4" stroke-miterlimit="10"/>
<path d="M3.71094 13.415H46.3549" stroke="#A85535" stroke-width="4" stroke-miterlimit="10"/>
<path d="M3.50488 14.9673H46.1489" stroke="#A85535" stroke-width="4" stroke-miterlimit="10"/>
<path d="M3.29834 16.5195H45.9423" stroke="#A85535" stroke-width="4" stroke-miterlimit="10"/>
<path d="M3.09229 18.0728H45.7363" stroke="#A85535" stroke-width="4" stroke-miterlimit="10"/>
<path d="M2.88574 19.625H45.5302" stroke="#A85535" stroke-width="4" stroke-miterlimit="10"/>
<path d="M2.67969 21.1782H45.3241" stroke="#A85535" stroke-width="4" stroke-miterlimit="10"/>
<path d="M2.47363 22.731H45.1181" stroke="#A85535" stroke-width="4" stroke-miterlimit="10"/>
<path d="M2.26758 24.2837H44.912" stroke="#A85535" stroke-width="4" stroke-miterlimit="10"/>
<path d="M2.06152 25.8364H44.7055" stroke="#A85535" stroke-width="4" stroke-miterlimit="10"/>
<path d="M1.85498 27.3892H44.499" stroke="#A85535" stroke-width="4" stroke-miterlimit="10"/>
<path d="M1.64941 28.9419H44.2934" stroke="#A85535" stroke-width="4" stroke-miterlimit="10"/>
<path d="M1.44336 30.4946H44.0874" stroke="#A85535" stroke-width="4" stroke-miterlimit="10"/>
<path d="M1.23682 32.0469H43.8808" stroke="#A85535" stroke-width="4" stroke-miterlimit="10"/>
<path d="M1.03076 33.6001H43.6748" stroke="#A85535" stroke-width="4" stroke-miterlimit="10"/>
<path d="M0.824219 35.1523H43.4687" stroke="#A85535" stroke-width="4" stroke-miterlimit="10"/>
<path d="M0.618164 36.7056H43.2626" stroke="#A85535" stroke-width="4" stroke-miterlimit="10"/>
<path d="M0.412598 38.2583H43.0571" stroke="#A85535" stroke-width="4" stroke-miterlimit="10"/>
<path d="M0.206055 39.811H42.8501" stroke="#A85535" stroke-width="4" stroke-miterlimit="10"/>
<path d="M0 41.3638H42.644" stroke="#A85535" stroke-width="4" stroke-miterlimit="10"/>
</mask>
<g mask="url(#mask0_2_676)">
<path d="M23.7224 41.752C35.4674 41.752 44.9887 32.4426 44.9887 20.9588C44.9887 9.47498 35.4674 0.165527 23.7224 0.165527C11.9773 0.165527 2.45605 9.47498 2.45605 20.9588C2.45605 32.4426 11.9773 41.752 23.7224 41.752Z" fill="#C77955"/>
</g>
<path d="M23.7224 41.752C35.4674 41.752 44.9887 32.4426 44.9887 20.9588C44.9887 9.47498 35.4674 0.165527 23.7224 0.165527C11.9773 0.165527 2.45605 9.47498 2.45605 20.9588C2.45605 32.4426 11.9773 41.752 23.7224 41.752Z" fill="#C77955"/>
<path d="M22.2892 41.5486C33.7168 41.5486 42.9808 32.2847 42.9808 20.8571C42.9808 9.42945 33.7168 0.165527 22.2892 0.165527C10.8616 0.165527 1.59766 9.42945 1.59766 20.8571C1.59766 32.2847 10.8616 41.5486 22.2892 41.5486Z" fill="#C77955"/>
<path d="M37.852 20.8191C38.0603 20.8191 38.0608 20.4951 37.852 20.4951C37.6431 20.4951 37.6431 20.8191 37.852 20.8191Z" fill="#FCE8D4"/>
<path d="M34.7738 18.4656C34.9822 18.4656 34.9827 18.1416 34.7738 18.1416C34.565 18.1416 34.565 18.4656 34.7738 18.4656Z" fill="#FCE8D4"/>
<path d="M36.5844 21.7249C36.7927 21.7249 36.7932 21.4009 36.5844 21.4009C36.3755 21.4009 36.3755 21.7249 36.5844 21.7249Z" fill="#FCE8D4"/>
<path d="M35.6791 12.8977C35.8875 12.8977 35.888 12.5737 35.6791 12.5737C35.4702 12.5737 35.4702 12.8977 35.6791 12.8977Z" fill="#FCE8D4"/>
<path d="M37.1728 26.6131C37.3811 26.6131 37.3816 26.2891 37.1728 26.2891C36.9639 26.2891 36.9639 26.6131 37.1728 26.6131Z" fill="#FCE8D4"/>
<path d="M7.36612 23.0823C7.57449 23.0823 7.57499 22.7583 7.36612 22.7583C7.15726 22.7583 7.15726 23.0823 7.36612 23.0823Z" fill="#FCE8D4"/>
<path d="M6.07559 18.262C6.28396 18.262 6.28446 17.938 6.07559 17.938C5.86673 17.938 5.86673 18.262 6.07559 18.262Z" fill="#FCE8D4"/>
<path d="M38.3951 18.5601C38.5645 18.5601 38.7266 18.4111 38.7191 18.2361C38.7111 18.0607 38.577 17.9121 38.3951 17.9121C38.2256 17.9121 38.0636 18.0612 38.071 18.2361C38.079 18.4116 38.2131 18.5601 38.3951 18.5601Z" fill="#FCE8D4"/>
<path d="M18.9087 6.27059C19.0782 6.27059 19.2402 6.12154 19.2328 5.94657C19.2248 5.77111 19.0907 5.62256 18.9087 5.62256C18.7393 5.62256 18.5772 5.77161 18.5847 5.94657C18.5927 6.12204 18.7268 6.27059 18.9087 6.27059Z" fill="#FCE8D4"/>
<path d="M21.9639 8.85018C22.1334 8.85018 22.2954 8.70113 22.2879 8.52616C22.28 8.3507 22.1459 8.20215 21.9639 8.20215C21.7944 8.20215 21.6324 8.35119 21.6399 8.52616C21.6479 8.70163 21.782 8.85018 21.9639 8.85018Z" fill="#FCE8D4"/>
<path d="M28.0064 7.15242C28.1759 7.15242 28.3379 7.00338 28.3304 6.82841C28.3224 6.65294 28.1883 6.50439 28.0064 6.50439C27.8369 6.50439 27.6749 6.65344 27.6824 6.82841C27.6904 7.00387 27.8244 7.15242 28.0064 7.15242Z" fill="#FCE8D4"/>
<path d="M10.2173 12.856C10.3868 12.856 10.5488 12.707 10.5413 12.532C10.5334 12.3566 10.3993 12.208 10.2173 12.208C10.0478 12.208 9.88584 12.3571 9.89332 12.532C9.90129 12.7075 10.0354 12.856 10.2173 12.856Z" fill="#FCE8D4"/>
<path d="M9.06303 31.6641C9.23252 31.6641 9.39452 31.5151 9.38705 31.3401C9.37907 31.1647 9.24498 31.0161 9.06303 31.0161C8.89355 31.0161 8.73154 31.1652 8.73902 31.3401C8.74699 31.5156 8.88109 31.6641 9.06303 31.6641Z" fill="#FCE8D4"/>
<path d="M36.4259 22.3202C36.6801 22.3202 36.9234 22.0968 36.9114 21.8346C36.8994 21.5714 36.6981 21.3491 36.4259 21.3491C36.1717 21.3491 35.9284 21.5724 35.9404 21.8346C35.9523 22.0978 36.1537 22.3202 36.4259 22.3202Z" fill="#FCE8D4"/>
<path d="M6.34679 18.6083C6.60101 18.6083 6.84427 18.3849 6.83231 18.1227C6.82035 17.8595 6.61896 17.6372 6.34679 17.6372C6.09256 17.6372 5.8493 17.8605 5.86126 18.1227C5.87323 18.3859 6.07461 18.6083 6.34679 18.6083Z" fill="#FCE8D4"/>
<path d="M6.34679 18.6083C6.60101 18.6083 6.84427 18.3849 6.83231 18.1227C6.82035 17.8595 6.61896 17.6372 6.34679 17.6372C6.09256 17.6372 5.8493 17.8605 5.86126 18.1227C5.87323 18.3859 6.07461 18.6083 6.34679 18.6083Z" fill="#FCE8D4"/>
<path d="M7.79532 17.7415C8.00369 17.7415 8.00418 17.4175 7.79532 17.4175C7.58646 17.4175 7.58646 17.7415 7.79532 17.7415Z" fill="#FCE8D4"/>
<path d="M32.8814 23.5718C32.4388 22.518 31.9762 21.4627 31.7349 20.3451C31.3037 18.3472 31.6018 16.275 31.6208 14.2312C31.6367 12.4831 31.394 10.6197 30.4374 9.19456C30.1448 8.75839 29.5222 8.71253 29.1568 9.08988C28.5332 9.73342 28.085 10.5853 27.422 11.2074C26.5532 12.0225 25.3469 12.4013 24.1585 12.4826C22.9701 12.5638 21.7817 12.3734 20.6053 12.1835C20.1178 12.1047 19.6123 12.019 19.206 11.7383C19.0126 11.6047 18.8496 11.4323 18.7006 11.2508C17.7594 10.1093 17.2699 8.55899 16.0387 7.73899C15.8762 7.63082 15.6698 7.5361 15.4933 7.61885C15.3862 7.6692 15.3169 7.77438 15.2576 7.87707C14.2845 9.56693 14.6359 11.6925 14.1484 13.5807C14.0173 14.0877 13.8134 14.5966 13.4316 14.9555C13.1639 15.2073 12.8245 15.3708 12.5448 15.6095C12.2173 15.8892 11.9845 16.2601 11.7567 16.6255C10.832 18.1079 9.89187 19.6268 9.50904 21.3316C9.07436 23.2677 9.39339 25.2841 9.71392 27.2427C9.87493 28.2277 10.0359 29.2127 10.1969 30.1977C10.3066 30.8676 10.3973 30.7864 10.5449 31.3816C10.7194 32.0839 11.0045 33.2324 10.9327 34.6416C10.8739 35.7887 10.5688 36.003 10.8305 36.5842C11.1097 37.2033 11.6151 37.6919 12.1535 38.1061C13.956 39.4929 16.1967 40.1898 18.4324 40.6055C21.4761 41.1718 24.6475 41.2595 27.6449 40.4839C30.2534 39.8089 32.7743 38.4376 34.5608 36.3918C36.2043 34.5095 35.2682 30.8447 34.6924 28.6753C34.2288 26.9286 33.5803 25.2363 32.8809 23.5718H32.8814Z" fill="#FEBB54"/>
<path d="M28.9223 16.4673C29.4437 15.9344 29.7653 15.2101 29.8111 14.4659C29.8151 14.4046 29.7832 14.3741 29.7568 14.2565C29.6067 13.5925 29.7528 13.2959 29.6551 13.1873C29.5335 13.0517 29.0041 13.1763 27.1248 14.4275C27.3023 14.753 27.872 14.7026 28.0131 15.0456C28.1103 15.2819 27.9263 15.5411 27.7205 15.6921C27.5146 15.8437 27.2649 15.9598 27.1437 16.1851C26.9678 16.5116 27.2469 17.537 27.6846 17.5749C27.9602 17.5988 28.7174 16.6776 28.9228 16.4678L28.9223 16.4673Z" fill="#C77955"/>
<path d="M33.4642 32.1167C32.9946 31.8057 32.375 32.1152 31.9019 32.4218C31.3192 32.7996 30.7365 33.1775 30.1532 33.5553C29.397 34.0458 28.5132 34.5578 27.6469 34.3085C27.4629 34.2557 27.277 34.158 27.1913 33.9865C27.1334 33.8709 27.1284 33.7358 27.1374 33.6062C27.1878 32.8789 27.6224 32.2398 27.8293 31.5405C28.0511 30.7927 28.0078 29.9922 28.1643 29.228C28.6214 26.9958 30.7405 25.1713 30.5176 22.9037C30.4768 22.4895 30.3397 22.0598 30.0187 21.7951C29.6563 21.4965 29.1478 21.4721 28.6782 21.4536C27.5841 21.4108 26.4919 21.3255 25.4042 21.1989C25.0607 21.159 24.6834 21.0967 24.4616 20.8315C24.139 20.4452 24.3135 19.855 24.1635 19.3745C23.8958 18.5186 22.7822 18.3311 22.0943 17.7559C21.676 17.406 21.3695 16.8706 20.8411 16.7355C20.3157 16.6014 19.7923 16.9204 19.3436 17.2245C18.6587 17.6886 17.8915 18.3172 17.9693 19.1407C18.0526 20.028 18.7644 19.9093 19.3307 20.1661C19.7544 20.358 19.6268 20.0993 19.6587 20.6621C19.6756 20.9651 19.4523 21.2238 19.565 21.5464C19.7145 21.9731 20.2733 22.0528 20.7254 22.0598C21.5424 22.0728 22.4302 22.0633 23.0758 21.5618C23.5867 21.8305 23.509 22.6545 23.0713 23.0304C22.6336 23.4062 22.0125 23.4581 21.4368 23.4929C20.3964 23.5553 19.3107 23.6106 18.3556 23.1944C17.9499 23.0174 17.583 22.7612 17.1847 22.5678C15.9544 21.9701 14.5233 22.0095 13.1565 22.0618C14.5806 21.4123 15.4649 19.9906 16.2655 18.6457C16.6194 18.0515 16.9833 17.4239 17.0047 16.7325C17.0262 16.0411 16.5706 15.2829 15.8817 15.2251C15.5043 15.9389 14.8982 16.5296 14.1749 16.888C13.8957 17.0266 13.5946 17.1338 13.3568 17.3357C13.1191 17.5371 12.9546 17.8686 13.0588 18.1622C13.4426 18.2195 13.8294 18.0949 14.2172 18.0854C14.605 18.0759 15.0577 18.2444 15.1494 18.6218C15.2052 18.8506 15.11 19.0873 15.0033 19.2972C14.5547 20.1825 13.8613 20.9417 13.0209 21.4696C12.7786 21.6216 12.4302 21.7423 12.2358 21.5324C12.1042 21.3903 12.1226 21.1695 12.1495 20.9776C12.2153 20.508 12.2806 20.039 12.3464 19.5694C12.4042 19.1566 12.4576 18.7155 12.2761 18.3401C12.0698 17.9144 11.5877 17.6831 11.1097 17.6791C10.4208 18.8326 9.80116 20.0285 9.50855 21.333C9.07387 23.2691 9.3929 25.2855 9.71343 27.244C9.87444 28.229 10.0354 29.214 10.1965 30.199C10.2633 30.6073 10.334 31.0265 10.5444 31.3829C10.9776 32.1152 11.9975 32.6586 11.8086 33.488C11.6999 33.9646 11.2174 34.2457 10.9322 34.643C10.5359 35.1948 10.5509 35.9665 10.83 36.5856C10.9646 36.8847 11.1526 37.1529 11.3709 37.3971C12.8778 37.8702 14.3847 38.3428 15.8911 38.8158C16.6603 39.0571 17.4314 39.2994 18.2245 39.4429C19.9882 39.7629 21.8002 39.5895 23.5842 39.4145C25.5617 39.2211 27.5387 39.0277 29.5162 38.8338C30.73 38.7151 32.037 38.5566 32.9343 37.7306C33.5469 37.1668 33.8824 36.3578 34.0544 35.5433C34.2548 34.5947 34.2508 33.5788 33.8739 32.6855C33.7817 32.4666 33.6601 32.2483 33.4627 32.1172L33.4642 32.1167Z" fill="#FCE8D4"/>
<path d="M28.567 31.4283C28.742 31.5464 28.7988 31.8086 28.6887 31.9881C28.6169 32.1052 28.4933 32.179 28.404 32.2832C28.3148 32.3874 28.269 32.5584 28.3672 32.6541C28.4205 32.7064 28.5002 32.7189 28.5745 32.7249C29.8038 32.8241 32.9911 30.9627 32.044 29.4324C31.5714 28.6687 30.5251 28.907 29.9274 29.381C29.5216 29.703 29.5097 30.0485 29.2505 30.4682C29.0406 30.8072 28.6378 31.0011 28.567 31.4278V31.4283Z" fill="#C77955"/>
<path d="M16.7207 29.852C16.0004 30.0015 15.2681 30.0389 14.5378 30.0698C14.2995 30.0798 14.0119 29.9975 13.6635 29.8624C12.4342 29.3854 11.5504 28.1506 11.6601 27.9478C11.7558 27.7703 12.5075 28.5739 14.0558 28.8839C15.0248 28.8839 15.619 29.0793 16.2147 28.9043C16.5721 28.7992 16.5143 28.7259 17.103 28.514C17.2705 28.4537 17.4918 28.3819 17.8956 28.2314C18.0935 28.1576 18.08 28.1601 18.1528 28.1347C18.5965 27.9792 18.8397 27.9762 19.0441 27.9208C19.6827 27.7474 19.9105 27.0709 20.0152 27.1263C20.1263 27.1851 20.0176 28.025 19.4618 28.6855C18.9554 29.2867 18.2256 29.5409 16.7207 29.8525V29.852Z" fill="#FEBB54"/>
<path d="M12.9006 28.9055C13.5431 29.1333 14.2425 29.1323 14.9224 29.0854C16.1123 29.0032 17.3685 28.7509 18.2273 27.9239C17.4153 28.2166 16.4856 28.3247 15.7055 27.9554C14.9782 27.6109 14.4603 26.586 14.7105 25.8263C14.7793 25.617 14.896 25.4639 14.9887 25.3637C15.4812 25.3787 15.6258 25.277 15.6676 25.1828C15.7309 25.0392 15.56 24.9061 15.6223 24.7302C15.707 24.4909 16.0898 24.5547 16.1656 24.3683C16.2678 24.1155 15.7718 23.4874 15.1901 23.4381C14.8601 23.4102 14.7853 23.4521 14.1313 23.8339C13.7046 24.0831 13.1832 24.1654 12.7002 24.0607C12.5925 24.0373 12.4409 24.0288 12.1678 24.0109C11.7969 23.9859 11.611 23.974 11.5487 24.0069C11.2531 24.1629 11.437 24.8603 11.5317 26.087C11.6344 27.4225 11.5023 27.7031 11.8168 28.1513C12.1299 28.5964 12.5795 28.7933 12.9006 28.907V28.9055Z" fill="#5D554D"/>
<path d="M11.6938 27.4156C11.7856 27.2735 11.9172 27.1514 12.0702 27.0621C12.2227 26.9714 12.3947 26.9121 12.5697 26.8772C12.9221 26.8084 13.287 26.8353 13.6344 26.9241C13.9774 27.0133 14.2934 27.1504 14.596 27.2815C14.8986 27.4126 15.1887 27.5407 15.4793 27.6209C15.6234 27.6638 15.7729 27.6932 15.9265 27.7162C16.08 27.7411 16.237 27.7565 16.3975 27.7705L17.3795 27.8463C18.0336 27.8976 18.6741 27.9325 19.3411 27.8293C19.0485 27.9988 18.7195 28.109 18.386 28.1807C18.0515 28.2535 17.711 28.2859 17.3751 28.3044C17.2071 28.3133 17.0396 28.3188 16.8731 28.3213C16.7071 28.3258 16.5391 28.3258 16.3681 28.3223C16.1971 28.3188 16.0242 28.3064 15.8487 28.2864C15.6737 28.2635 15.4968 28.2311 15.3223 28.1817C14.9739 28.082 14.6588 27.9315 14.3617 27.7805C14.0646 27.6289 13.7825 27.4759 13.4939 27.3587C13.2112 27.2441 12.9062 27.1693 12.5976 27.1613C12.2895 27.1534 11.9715 27.2182 11.6948 27.4161L11.6938 27.4156Z" fill="#0D1212"/>
<path d="M10.7816 23.6597C10.7582 24.038 10.7208 24.3735 10.7034 24.705C10.6949 24.87 10.6894 25.0325 10.6859 25.193C10.6844 25.354 10.6859 25.513 10.6914 25.6726C10.7034 25.9916 10.7323 26.3086 10.7751 26.6361C10.816 26.9651 10.8798 27.2966 10.9312 27.6725C10.6221 27.4501 10.3983 27.1381 10.2388 26.7976C10.0788 26.4557 9.99352 26.0783 9.97957 25.6985C9.97358 25.5086 9.98505 25.3181 10.014 25.1307C10.0449 24.9438 10.0922 24.7598 10.1585 24.5839C10.2936 24.2334 10.491 23.9054 10.7816 23.6592V23.6597Z" fill="#FEBB54"/>
<path d="M17.0707 25.3899C17.2791 25.3899 17.2796 25.0659 17.0707 25.0659C16.8618 25.0659 16.8618 25.3899 17.0707 25.3899Z" fill="#5D554D"/>
<path d="M18.7006 25.5252C18.909 25.5252 18.9095 25.2012 18.7006 25.2012C18.4917 25.2012 18.4917 25.5252 18.7006 25.5252Z" fill="#5D554D"/>
<path d="M18.1571 26.5433C18.3655 26.5433 18.366 26.2192 18.1571 26.2192C17.9483 26.2192 17.9483 26.5433 18.1571 26.5433Z" fill="#5D554D"/>
<path d="M15.8488 25.8917C16.0049 25.8917 16.0054 25.6489 15.8488 25.6489C15.6923 25.6489 15.6923 25.8917 15.8488 25.8917Z" fill="#5D554D"/>
<path d="M16.6636 26.3266C16.7678 26.3266 16.7678 26.1646 16.6636 26.1646C16.5594 26.1646 16.5594 26.3266 16.6636 26.3266Z" fill="#5D554D"/>
<path d="M15.7808 26.9379C15.885 26.9379 15.885 26.7759 15.7808 26.7759C15.6766 26.7759 15.6766 26.9379 15.7808 26.9379Z" fill="#5D554D"/>
<path d="M17.5459 25.1723C17.6501 25.1723 17.6501 25.0103 17.5459 25.0103C17.4417 25.0103 17.4417 25.1723 17.5459 25.1723Z" fill="#5D554D"/>
<path d="M19.9229 25.58C20.027 25.58 20.027 25.418 19.9229 25.418C19.8187 25.418 19.8187 25.58 19.9229 25.58Z" fill="#5D554D"/>
<path d="M10.96 25.6478C11.0642 25.6478 11.0642 25.4858 10.96 25.4858C10.8558 25.4858 10.8558 25.6478 10.96 25.6478Z" fill="#5D554D"/>
<path d="M10.417 24.9686C10.5212 24.9686 10.5212 24.8066 10.417 24.8066C10.3128 24.8066 10.3128 24.9686 10.417 24.9686Z" fill="#5D554D"/>
<path d="M10.8242 24.6293C10.9284 24.6293 10.9284 24.4673 10.8242 24.4673C10.72 24.4673 10.72 24.6293 10.8242 24.6293Z" fill="#5D554D"/>
<path d="M10.2813 26.4623C10.3854 26.4623 10.3854 26.3003 10.2813 26.3003C10.1771 26.3003 10.1771 26.4623 10.2813 26.4623Z" fill="#5D554D"/>
<path d="M11.028 25.7564C11.1841 25.7564 11.1846 25.5137 11.028 25.5137C10.8715 25.5137 10.8715 25.7564 11.028 25.7564Z" fill="#5D554D"/>
<path d="M10.3488 25.0767C10.5049 25.0767 10.5054 24.834 10.3488 24.834C10.1923 24.834 10.1923 25.0767 10.3488 25.0767Z" fill="#5D554D"/>
<path d="M29.0649 10.5699C29.1846 10.4298 29.3556 10.2748 29.5275 10.3406C29.5938 10.366 29.6442 10.4208 29.6905 10.4752C30.7443 11.7064 31.1067 13.494 30.6152 15.0388C30.1771 16.4156 29.1053 17.7271 29.4458 19.1308C29.7339 20.3187 30.9218 21.0246 32.002 21.5973C32 21.5091 32.002 21.4214 32.005 21.3336C31.8998 21.0086 31.8071 20.6796 31.7348 20.3451C31.3036 18.3472 31.6017 16.275 31.6207 14.2312C31.6366 12.4831 31.3939 10.6197 30.4373 9.19456C30.1447 8.75839 29.522 8.71253 29.1567 9.08988C28.5331 9.73342 28.0849 10.5853 27.4219 11.2074C26.5531 12.0225 25.3468 12.4013 24.1584 12.4826C22.97 12.5638 21.7816 12.3734 20.6052 12.1835C20.1177 12.1047 19.6122 12.019 19.2059 11.7383C19.0125 11.6047 18.8495 11.4323 18.7005 11.2508C17.7593 10.1093 17.2698 8.55899 16.0386 7.73899C15.8761 7.63082 15.6697 7.5361 15.4932 7.61885C15.3965 7.66422 15.3307 7.75444 15.2754 7.84716C15.3527 8.08743 15.4703 8.32869 15.579 8.54304C16.1298 9.62724 16.3576 10.871 16.242 12.0803C16.1732 12.8001 15.9513 13.0055 16.716 13.0987C17.2299 13.1615 17.7658 12.9003 18.1975 13.3265C18.3391 13.4666 18.4228 13.6565 18.4667 13.8504C18.7413 15.0647 17.5694 16.281 17.8994 17.4818C18.6541 15.6439 20.7079 14.4331 22.6814 14.6624C23.7681 14.7885 24.771 15.2965 25.7161 15.8473C25.3562 15.0876 25.936 14.2357 26.4818 13.5962C27.3432 12.5867 28.2041 11.5778 29.0654 10.5684L29.0649 10.5699Z" fill="#C77955"/>
<path d="M23.4763 20.427C23.4868 20.9409 22.757 21.3547 22.3961 21.559C22.0531 21.7534 21.7361 21.9329 21.3159 21.8845C20.8074 21.8262 20.2486 21.4459 20.1474 20.9165C20.0094 20.1922 20.7855 19.4993 21.5018 19.3517C22.4175 19.1633 23.4633 19.8193 23.4763 20.427Z" fill="white"/>
<path d="M23.4893 20.4267C23.4943 20.5244 23.4754 20.6231 23.4395 20.7158C23.4001 20.8065 23.3497 20.8932 23.2889 20.971C23.1693 21.129 23.0212 21.2611 22.8672 21.3818C22.7117 21.4999 22.5472 21.6041 22.3817 21.6988C22.2172 21.7965 22.0377 21.8892 21.8378 21.9371C21.6384 21.9854 21.4256 21.9804 21.2337 21.9286C21.1375 21.9027 21.0443 21.8713 20.9555 21.8309C20.8658 21.7925 20.7796 21.7476 20.6968 21.6968C20.6121 21.6484 20.5353 21.5891 20.4565 21.5298C20.3758 21.4725 20.2885 21.4172 20.1928 21.3538C20.1021 21.2875 20.0084 21.2053 19.9501 21.0981C19.8918 20.9914 19.8708 20.8658 19.8738 20.7447C19.8783 20.6839 19.8808 20.6226 19.8997 20.5652L19.9257 20.4795C19.9341 20.4511 19.9491 20.4257 19.9615 20.3993L20.0019 20.3225C20.0159 20.2976 20.0333 20.2751 20.0493 20.2517L20.0976 20.1839L20.1505 20.1216L20.2028 20.0608C20.2213 20.0418 20.2402 20.0234 20.2581 20.004C20.2761 19.985 20.294 19.9661 20.311 19.9466C20.3294 19.9287 20.3489 19.9112 20.3663 19.8928L20.4197 19.838L20.476 19.7866L20.5318 19.7353L20.5906 19.6879C20.7472 19.5618 20.9151 19.4521 21.0966 19.3644C21.2775 19.2777 21.4764 19.2119 21.6818 19.1924C21.8867 19.173 22.0931 19.1924 22.288 19.2463C22.4834 19.2976 22.6688 19.3808 22.8368 19.489C23.0043 19.5972 23.1563 19.7298 23.277 19.8873C23.3373 19.9656 23.3891 20.0508 23.4265 20.1415C23.4654 20.2323 23.4803 20.33 23.4893 20.4262V20.4267ZM23.4634 20.4272C23.4664 20.333 23.4265 20.2437 23.3816 20.164C23.3358 20.0837 23.2745 20.0129 23.2077 19.9496C23.0731 19.823 22.9131 19.7278 22.7471 19.6535C22.4146 19.504 22.0527 19.4362 21.7032 19.4566C21.3583 19.4795 21.0019 19.6171 20.7312 19.8559L20.6809 19.9008L20.6345 19.9496L20.5886 19.9985L20.5483 20.0513C20.5348 20.0688 20.5228 20.0877 20.5099 20.1056C20.4984 20.1246 20.4894 20.145 20.479 20.164C20.4685 20.1834 20.46 20.2033 20.4506 20.2228C20.4431 20.2432 20.4376 20.2647 20.4306 20.2851C20.4246 20.3055 20.4177 20.326 20.4122 20.3464L20.4022 20.4087C20.3992 20.4292 20.3947 20.4491 20.3927 20.469L20.3902 20.5284C20.3858 20.5672 20.3892 20.6046 20.3887 20.6405C20.3848 20.6764 20.3927 20.7113 20.3922 20.7452C20.3952 20.814 20.4042 20.8783 20.4017 20.9536C20.4017 21.0278 20.3962 21.1161 20.4082 21.2098C20.4216 21.302 20.4565 21.3947 20.5164 21.466C20.5782 21.5348 20.6509 21.5941 20.7302 21.6435C20.7686 21.6704 20.8115 21.6893 20.8523 21.7118C20.8957 21.7292 20.9371 21.7501 20.9819 21.7631C21.0697 21.794 21.1619 21.811 21.2526 21.8189C21.4361 21.8364 21.6135 21.803 21.778 21.7392C21.9435 21.6769 22.102 21.5871 22.269 21.4989C22.4355 21.4072 22.6025 21.3229 22.763 21.2282C22.9225 21.1335 23.0801 21.0328 23.2127 20.9042C23.2804 20.8414 23.3363 20.7681 23.3846 20.6899C23.4285 20.6091 23.4559 20.5204 23.4629 20.4272H23.4634Z" fill="#0C0B16"/>
<path d="M23.3368 20.8309C23.275 21.0358 23.085 21.1644 22.7052 21.4216C22.2605 21.7222 22.0133 21.8902 21.7087 21.8643C21.1968 21.8209 20.6679 21.2427 20.6754 20.5937C20.6833 19.8933 21.3124 19.3255 21.962 19.3071C22.8498 19.2826 23.4988 20.2946 23.3373 20.8309H23.3368Z" fill="#080A1A"/>
<path opacity="0.49" d="M22.079 19.742C22.0491 19.7783 21.9823 19.7489 21.8861 19.7459C21.6189 19.738 21.5262 19.7729 21.5148 19.742C21.4998 19.7031 21.6414 19.5969 21.7969 19.5675C21.8368 19.56 22.0018 19.5291 22.0661 19.6173C22.092 19.6532 22.1035 19.7111 22.079 19.742Z" fill="white"/>
<path opacity="0.7" d="M22.3682 19.9995C22.3682 20.0922 22.2929 20.1675 22.2002 20.1675C22.1075 20.1675 22.0322 20.0922 22.0322 19.9995C22.0322 19.9068 22.1075 19.8315 22.2002 19.8315C22.2929 19.8315 22.3682 19.9068 22.3682 19.9995Z" fill="white"/>
<path d="M14.4649 20.0778C15.0841 19.8402 15.3934 19.1457 15.1559 18.5265C14.9183 17.9073 14.2238 17.5979 13.6046 17.8355C12.9854 18.073 12.676 18.7676 12.9135 19.3868C13.1511 20.006 13.8457 20.3154 14.4649 20.0778Z" fill="white"/>
<path d="M15.2423 18.8793C15.2622 19.1963 15.162 19.5169 14.9651 19.7751C14.8664 19.9042 14.7438 20.0188 14.5997 20.1061C14.5264 20.1484 14.4507 20.1809 14.3774 20.2417C14.3395 20.2671 14.3001 20.297 14.2578 20.3179C14.2154 20.3359 14.17 20.3473 14.1247 20.3508C13.9422 20.3568 13.7593 20.3095 13.6047 20.2207C13.4492 20.1335 13.3231 20.0144 13.2124 19.8947C12.9896 19.6569 12.8351 19.3648 12.7927 19.0398C12.7718 18.8783 12.7798 18.7093 12.8256 18.5483C12.8705 18.3873 12.9527 18.2353 13.0624 18.1067C13.1716 17.9781 13.3062 17.8684 13.4587 17.7921C13.6107 17.7154 13.7787 17.6695 13.9487 17.657C14.2917 17.6276 14.6356 17.7757 14.8639 18.0124C15.0952 18.2507 15.2218 18.5648 15.2418 18.8798L15.2423 18.8793ZM15.2228 18.8808C15.2109 18.7253 15.1665 18.5722 15.0897 18.4382C15.0145 18.3031 14.9083 18.1889 14.7876 18.0997C14.6665 18.0105 14.5304 17.9471 14.3909 17.9083C14.2503 17.8719 14.1062 17.8554 13.9627 17.8634C13.675 17.8794 13.3974 18.0129 13.2 18.2268C13.0061 18.4421 12.8819 18.7283 12.8785 19.0338C12.8785 19.1854 12.9104 19.3404 12.9786 19.4785C13.0469 19.6161 13.1451 19.7417 13.2713 19.8279C13.3969 19.9157 13.5479 19.957 13.6905 19.9705C13.834 19.983 13.9686 19.977 14.0997 19.963C14.1326 19.957 14.1655 19.9595 14.2009 19.9685C14.2358 19.9745 14.2732 19.9859 14.3121 19.9949C14.35 20.0014 14.3884 20.0029 14.4252 19.9974C14.4611 19.9894 14.495 19.9755 14.5304 19.965C14.6685 19.9132 14.7996 19.8329 14.9088 19.7257C15.1291 19.5124 15.2467 19.1924 15.2233 18.8808H15.2228Z" fill="#0C0B16"/>
<path d="M14.2783 20.0854C14.844 20.0854 15.3027 19.5786 15.3027 18.9533C15.3027 18.3281 14.844 17.8213 14.2783 17.8213C13.7125 17.8213 13.2539 18.3281 13.2539 18.9533C13.2539 19.5786 13.7125 20.0854 14.2783 20.0854Z" fill="#080A1A"/>
<path opacity="0.49" d="M14.4593 18.2284C14.4334 18.2609 14.3746 18.2344 14.2894 18.2319C14.0546 18.225 13.9728 18.2559 13.9624 18.2284C13.9494 18.1941 14.0735 18.1008 14.2106 18.0749C14.2455 18.0684 14.3911 18.041 14.4479 18.1188C14.4708 18.1502 14.4808 18.2015 14.4593 18.2284Z" fill="white"/>
<path opacity="0.7" d="M13.8679 18.4567C13.8679 18.513 13.8226 18.5584 13.7662 18.5584C13.7099 18.5584 13.6646 18.513 13.6646 18.4567C13.6646 18.4003 13.7099 18.355 13.7662 18.355C13.8226 18.355 13.8679 18.4003 13.8679 18.4567Z" fill="white"/>
<path d="M13.9705 22.3527C14.3274 22.4533 14.5597 22.6368 14.6853 22.738C14.8174 22.8447 15.5861 23.4369 15.432 24.036C15.3333 24.4204 14.9714 24.6691 14.6369 24.8825C14.2003 25.1606 13.7636 25.4388 13.3264 25.7169C13.2546 25.7628 13.1779 25.8096 13.0931 25.8111C12.9974 25.8126 12.9187 25.7668 12.8613 25.7244C11.5434 24.7474 11.5483 24.0046 11.5483 24.0046C11.5528 23.3272 12.0344 22.8656 12.1819 22.737C12.7123 22.2749 13.4226 22.1976 13.97 22.3522L13.9705 22.3527Z" fill="#0D1212"/>
<path d="M14.4524 25.1717C14.4075 25.1662 14.5541 24.7455 14.3273 24.578C14.1333 24.4349 13.8298 24.5974 13.6947 24.4569C13.6035 24.3621 13.6493 24.1927 13.6947 24.0765C13.7366 24.0606 13.9708 23.9743 14.2121 24.0765C14.426 24.1667 14.5042 24.3452 14.5381 24.4225C14.6986 24.7884 14.4957 25.1772 14.4524 25.1717Z" fill="#5D554D"/>
<path d="M11.9002 25.0108C11.9346 25.0023 11.78 24.6499 11.942 24.4854C12.0801 24.3448 12.3328 24.46 12.4256 24.3264C12.4879 24.2367 12.436 24.0931 12.3897 23.9964C12.3553 23.9859 12.1639 23.9316 11.9849 24.0408C11.8259 24.1375 11.7815 24.299 11.7626 24.3688C11.6719 24.6997 11.8673 25.0198 11.9007 25.0113L11.9002 25.0108Z" fill="#5D554D"/>
<path d="M13.2626 22.323C12.6151 22.3484 12.1575 22.7796 12.0313 22.9087C11.8783 23.0647 11.7791 23.2193 11.7168 23.3314C12.0677 23.0587 12.5682 22.7641 13.2008 22.6929C13.8847 22.6156 14.3991 22.8369 14.4231 22.7607C14.4485 22.6794 13.9021 22.2981 13.2626 22.3235V22.323Z" fill="white"/>
<path d="M13.2522 25.7022C13.1221 26.1304 13.008 26.5671 12.9108 27.0108C12.8355 26.5631 12.7772 26.109 12.7368 25.6499L13.2522 25.7022Z" fill="#0D1212"/>
<path d="M21.9811 42.0491C16.3652 42.0491 11.0857 39.8622 7.11431 35.8913C3.14339 31.9204 0.956543 26.6404 0.956543 21.0245C0.956543 15.4086 3.14339 10.1292 7.11431 6.15777C11.0857 2.18685 16.3657 0 21.9811 0C27.5965 0 32.8764 2.18685 36.8479 6.15777C40.8188 10.1287 43.0056 15.4086 43.0056 21.0245C43.0056 26.6404 40.8188 31.9199 36.8479 35.8913C32.8769 39.8622 27.597 42.0491 21.9811 42.0491ZM21.9811 2.84933C17.1264 2.84933 12.5622 4.74008 9.12918 8.17264C5.69612 11.6057 3.80587 16.1698 3.80587 21.0245C3.80587 25.8793 5.69662 30.4434 9.12918 33.8764C12.5622 37.3095 17.1264 39.1997 21.9811 39.1997C26.8358 39.1997 31.3999 37.309 34.833 33.8764C38.266 30.4434 40.1563 25.8793 40.1563 21.0245C40.1563 16.1698 38.2655 11.6057 34.833 8.17264C31.3999 4.73958 26.8358 2.84933 21.9811 2.84933Z" fill="#FEBB54"/>
<path d="M33.9386 7.33494L33.5268 7.00444L33.3215 6.83944C33.2522 6.78511 33.1799 6.73526 33.1096 6.68242L32.6844 6.37137C32.5413 6.26968 32.3928 6.17596 32.2472 6.07776C31.9591 5.87687 31.6545 5.7024 31.3554 5.51946C31.2812 5.4726 31.2039 5.43123 31.1271 5.38936L30.8963 5.26324L30.6655 5.13712L30.5504 5.07431L30.4323 5.01649C29.1806 4.3889 27.8666 3.88394 26.5062 3.56441L25.9967 3.44427L25.4828 3.34507L25.2261 3.29572L24.9674 3.25784L24.45 3.18207C23.7571 3.1063 23.0622 3.04499 22.3653 3.04698C21.6689 3.03602 20.973 3.07639 20.2806 3.1387C20.1939 3.14369 20.1077 3.15764 20.0214 3.16861L19.7627 3.20251C19.5907 3.22693 19.4173 3.24388 19.2463 3.27379L18.7333 3.36701L18.4771 3.41337C18.3919 3.43081 18.3076 3.45225 18.2229 3.47119L17.7154 3.58933L17.5888 3.61924L17.4637 3.65513L17.2135 3.72641C17.047 3.77477 16.879 3.81913 16.7135 3.87147L16.2205 4.03896L15.9742 4.12271C15.892 4.15013 15.8122 4.18502 15.731 4.21543L15.2465 4.40485L15.1253 4.45221L15.0067 4.50505L14.7694 4.61172C14.6114 4.6835 14.4524 4.75229 14.2953 4.82607C13.0476 5.43222 11.8707 6.18194 10.7935 7.05379C9.71329 7.92265 8.73875 8.92111 7.88585 10.0118C7.78017 10.1489 7.6715 10.2835 7.56831 10.423L7.26972 10.8482L7.12018 11.0606C7.06933 11.1309 7.02646 11.2062 6.97911 11.2784L6.70195 11.7176C6.60574 11.8617 6.52698 12.0162 6.44025 12.1657L6.18552 12.6184L5.95273 13.0824C5.87546 13.2375 5.79471 13.3905 5.72791 13.5505C5.15017 14.8082 4.71649 16.1322 4.43883 17.4895C4.16866 18.8484 4.06049 20.2382 4.09737 21.6235L4.10236 21.8832C4.10485 21.9699 4.11333 22.0561 4.11831 22.1424L4.1537 22.6613L4.16268 22.7909C4.16666 22.8343 4.17264 22.8771 4.17713 22.92L4.20754 23.1782L4.26885 23.6947L4.35509 24.2076C4.3845 24.3786 4.40893 24.5501 4.4498 24.719C4.52607 25.057 4.59037 25.3985 4.68858 25.7315L4.82466 26.2334L4.98467 26.7284C5.08437 27.0609 5.21597 27.3824 5.3366 27.7075C5.39443 27.8715 5.46571 28.0295 5.535 28.1885L5.74187 28.666C5.81615 28.8226 5.8949 28.9776 5.97117 29.1336L6.08632 29.3674C6.10576 29.4063 6.12421 29.4457 6.14465 29.484L6.20795 29.5977C6.86545 30.822 7.66751 31.9685 8.58273 33.0178C8.63756 33.0856 8.69788 33.1484 8.7572 33.2122L8.93516 33.4031C9.05429 33.5297 9.17094 33.6598 9.29307 33.784C9.54231 34.0272 9.78607 34.2765 10.0488 34.5063C10.303 34.745 10.5742 34.9644 10.8414 35.1892C10.9769 35.2994 11.117 35.403 11.2546 35.5102L11.462 35.6697L11.6753 35.8213C12.8054 36.6418 14.0386 37.3207 15.3312 37.8596L15.8192 38.055C15.9827 38.1178 16.1492 38.1731 16.3137 38.2329L16.562 38.3207L16.8132 38.3984C16.9812 38.4493 17.1477 38.5046 17.3167 38.5515C17.9916 38.7449 18.679 38.8939 19.3729 39.0146C18.6755 38.9228 17.9801 38.8022 17.2942 38.6362C17.1222 38.5963 16.9533 38.5455 16.7828 38.5006L16.5276 38.4313L16.2748 38.3521C16.1068 38.2977 15.9374 38.2479 15.7704 38.1901L15.2719 38.0101L15.1473 37.9652L15.0246 37.9154L14.7789 37.8152C14.6149 37.7489 14.4509 37.6831 14.2914 37.6068L13.8088 37.3855L13.3358 37.1447C12.7097 36.8152 12.095 36.4593 11.5118 36.0556L11.291 35.907L11.0766 35.7495C10.9346 35.6438 10.7895 35.5411 10.6494 35.4325C10.3728 35.2106 10.0916 34.9933 9.82744 34.756C9.55527 34.5277 9.30104 34.28 9.04133 34.0372C8.91422 33.9131 8.79259 33.7835 8.66797 33.6574L8.48203 33.4664C8.42022 33.4026 8.35692 33.3398 8.29959 33.272C7.34101 32.2222 6.50605 31.0578 5.80966 29.8145C5.11029 28.5723 4.57791 27.2379 4.19657 25.8631C4.09239 25.5216 4.0226 25.1712 3.94085 24.8237C3.89748 24.6508 3.87056 24.4738 3.83816 24.2983L3.74445 23.7714L3.67566 23.2405L3.64176 22.9749C3.63628 22.9305 3.6298 22.8866 3.62531 22.8418L3.61484 22.7082L3.57297 22.1743C3.56699 22.0851 3.55752 21.9963 3.55403 21.9071L3.54605 21.6394C3.49521 20.2128 3.60786 18.7791 3.88053 17.3764C4.16268 15.9751 4.60533 14.6058 5.19902 13.3053C5.26831 13.1403 5.35206 12.9823 5.43231 12.8227L5.67458 12.3442L5.93877 11.8776C6.029 11.7231 6.11125 11.5641 6.21045 11.4155L6.49807 10.9634C6.54692 10.8886 6.59178 10.8114 6.64412 10.7391L6.79866 10.5202L7.10821 10.0826C7.21489 9.93951 7.32755 9.80043 7.43721 9.65936L7.60271 9.44851C7.65704 9.37772 7.71287 9.30793 7.77219 9.24114L8.12313 8.83637L8.29859 8.63398L8.48353 8.44007L8.8534 8.05275C8.91372 7.98695 8.97852 7.92564 9.04383 7.86433L9.23823 7.67989C9.36834 7.55776 9.49595 7.43264 9.62805 7.3125L10.0343 6.96357C10.1704 6.84792 10.304 6.72928 10.4476 6.6231C11.5667 5.7358 12.7859 4.97561 14.0755 4.36447C15.3681 3.75832 16.7334 3.31317 18.1287 3.02654C19.5239 2.73593 20.9526 2.62078 22.3728 2.66564C23.0836 2.6796 23.7915 2.75786 24.4948 2.85058L25.0197 2.93931L25.2819 2.98367L25.5421 3.0395L26.0621 3.15166C26.234 3.19453 26.4055 3.24139 26.5765 3.28675C27.9473 3.65214 29.2658 4.19599 30.5065 4.87243C31.7468 5.55136 32.8938 6.38981 33.9381 7.33244L33.9386 7.33494Z" fill="#C77955"/>
<path d="M21.9811 42.0489L20.9482 42.0465L19.9159 41.9886C19.5729 41.9547 19.23 41.9164 18.887 41.8805C18.546 41.8301 18.2051 41.7748 17.8636 41.7219C16.5052 41.4727 15.1693 41.0869 13.8867 40.5665C12.6026 40.049 11.3743 39.3935 10.2194 38.6279C9.06587 37.8597 7.99114 36.9739 7.00913 35.9964C6.0311 35.0144 5.1463 33.9391 4.37764 32.7861C3.61246 31.6311 2.95596 30.4029 2.43903 29.1188L2.07414 28.1472C1.96896 27.8177 1.86129 27.4887 1.7596 27.1588C1.67187 26.8243 1.58214 26.4903 1.4964 26.1558C1.42562 25.8173 1.35134 25.4804 1.28355 25.1419C1.23071 24.8004 1.17538 24.46 1.12503 24.1185C1.08914 23.775 1.05076 23.4326 1.01686 23.0896L0.959036 22.0573L0.956543 21.0244L1.0044 22.0553L1.09612 23.0822L1.23719 24.1025C1.298 24.4405 1.3643 24.777 1.42761 25.114C1.70925 26.4564 2.122 27.7694 2.65488 29.0301C3.19174 30.2892 3.84376 31.498 4.61292 32.6291C5.37809 33.7617 6.25293 34.8204 7.22098 35.7855C8.18605 36.7536 9.24483 37.6279 10.3774 38.3936C11.5079 39.1622 12.7173 39.8152 13.9764 40.3516C15.2371 40.8845 16.5501 41.2972 17.8925 41.5789C18.2295 41.6422 18.566 41.708 18.9039 41.7693L19.9243 41.9099L20.9512 42.0011L21.9821 42.0485L21.9811 42.0489Z" fill="#FCE8D4"/>
<path d="M22.2236 0.0366211L23.2565 0.0520741L24.2879 0.12236C24.6303 0.160245 24.9728 0.203115 25.3152 0.242993C25.6557 0.297328 25.9957 0.357146 26.3366 0.413973C27.692 0.680163 29.0229 1.08194 30.2991 1.61831C31.5767 2.15119 32.797 2.82215 33.942 3.60177C35.086 4.3839 36.1498 5.28266 37.1198 6.27265C38.0854 7.26662 38.9572 8.35232 39.7119 9.51478C40.4631 10.6787 41.1042 11.915 41.6052 13.2056L41.9581 14.1816C42.0593 14.5126 42.1625 14.8426 42.2607 15.1741C42.3444 15.5095 42.4302 15.8445 42.5114 16.18C42.5782 16.519 42.648 16.8574 42.7118 17.1969C42.7602 17.5389 42.8115 17.8803 42.8574 18.2223C42.8893 18.5662 42.9232 18.9092 42.9526 19.2527L42.9974 20.2855L42.9875 21.3184L42.9526 20.287L42.8738 19.2591L42.7457 18.2372C42.6889 17.8988 42.6271 17.5613 42.5677 17.2238C42.3025 15.8779 41.9063 14.5599 41.3888 13.2928C40.8674 12.0271 40.2303 10.8103 39.4751 9.67031C38.7239 8.52829 37.8621 7.45904 36.9065 6.48201C35.9534 5.50199 34.9056 4.61469 33.7825 3.83507C32.6614 3.05245 31.4605 2.38498 30.2078 1.83266C28.9537 1.28433 27.6461 0.855629 26.3072 0.557536C25.9712 0.490241 25.6353 0.419955 25.2983 0.354654L24.2799 0.201121L23.2545 0.0969376L22.2241 0.0366211H22.2236Z" fill="#FCE8D4"/>
<path d="M60.6743 29.417V13.1663H66.5795C68.3496 13.1663 69.8297 13.5325 71.0199 14.2649C72.2101 14.9821 73.1027 15.9586 73.6978 17.1946C74.2929 18.4153 74.5905 19.7734 74.5905 21.2688C74.5905 22.9167 74.2624 24.3511 73.6063 25.5718C72.9501 26.7925 72.0193 27.7386 70.8139 28.4099C69.6237 29.0813 68.2122 29.417 66.5795 29.417H60.6743ZM71.409 21.2688C71.409 20.2159 71.2182 19.2927 70.8368 18.4993C70.4553 17.6905 69.906 17.0649 69.1888 16.6224C68.4716 16.1646 67.6019 15.9358 66.5795 15.9358H63.8329V26.6475H66.5795C67.6171 26.6475 68.4945 26.4187 69.2117 25.9609C69.9289 25.4879 70.4706 24.847 70.8368 24.0383C71.2182 23.2143 71.409 22.2911 71.409 21.2688Z" fill="black"/>
<path d="M82.2998 29.6459C81.3232 29.6459 80.4458 29.4857 79.6676 29.1653C78.8894 28.8296 78.2256 28.3718 77.6763 27.792C77.1422 27.2121 76.7302 26.5484 76.4403 25.8007C76.1504 25.053 76.0054 24.2671 76.0054 23.4432C76.0054 22.6039 76.1504 21.8105 76.4403 21.0628C76.7302 20.3151 77.1422 19.6513 77.6763 19.0715C78.2256 18.4916 78.8894 18.0415 79.6676 17.7211C80.4458 17.3854 81.3232 17.2175 82.2998 17.2175C83.2763 17.2175 84.1461 17.3854 84.909 17.7211C85.6872 18.0415 86.351 18.4916 86.9003 19.0715C87.4496 19.6513 87.8616 20.3151 88.1363 21.0628C88.4262 21.8105 88.5712 22.6039 88.5712 23.4432C88.5712 24.2671 88.4262 25.053 88.1363 25.8007C87.8616 26.5484 87.4496 27.2121 86.9003 27.792C86.3663 28.3718 85.7101 28.8296 84.9319 29.1653C84.1537 29.4857 83.2763 29.6459 82.2998 29.6459ZM79.164 23.4432C79.164 24.1451 79.3014 24.7707 79.576 25.32C79.8507 25.8541 80.2245 26.2737 80.6976 26.5789C81.1706 26.8841 81.7047 27.0366 82.2998 27.0366C82.8796 27.0366 83.406 26.8841 83.8791 26.5789C84.3521 26.2584 84.7259 25.8312 85.0006 25.2971C85.2905 24.7478 85.4355 24.1222 85.4355 23.4203C85.4355 22.7336 85.2905 22.1156 85.0006 21.5663C84.7259 21.017 84.3521 20.5897 83.8791 20.2846C83.406 19.9794 82.8796 19.8268 82.2998 19.8268C81.7047 19.8268 81.1706 19.987 80.6976 20.3074C80.2245 20.6126 79.8507 21.0399 79.576 21.5892C79.3014 22.1233 79.164 22.7412 79.164 23.4432Z" fill="black"/>
<path d="M95.3335 29.4857C94.54 29.4857 93.8076 29.3331 93.1362 29.0279C92.48 28.7075 91.9078 28.265 91.4195 27.7004C90.9465 27.1358 90.5803 26.4873 90.3209 25.7549C90.0615 25.0225 89.9318 24.2443 89.9318 23.4203C89.9318 22.5505 90.0691 21.7418 90.3438 20.9941C90.6184 20.2464 90.9999 19.5903 91.4882 19.0257C91.9917 18.4459 92.5792 18.0033 93.2506 17.6982C93.9373 17.3777 94.6926 17.2175 95.5166 17.2175C96.4474 17.2175 97.2637 17.4311 97.9656 17.8584C98.6675 18.2704 99.2474 18.8273 99.7051 19.5292V17.4235H102.383V28.8448C102.383 30.035 102.093 31.0497 101.513 31.889C100.949 32.7435 100.163 33.392 99.1558 33.8345C98.1487 34.2923 97.0043 34.5212 95.7226 34.5212C94.4255 34.5212 93.3269 34.2999 92.4266 33.8574C91.5263 33.4301 90.7558 32.8198 90.1149 32.0263L91.7857 30.4012C92.2435 30.9658 92.8157 31.4083 93.5024 31.7288C94.2043 32.0492 94.9443 32.2094 95.7226 32.2094C96.3787 32.2094 96.9738 32.0874 97.5079 31.8432C98.0572 31.6143 98.4921 31.2481 98.8125 30.7446C99.1482 30.2563 99.316 29.623 99.316 28.8448V27.3342C98.9193 28.0208 98.3547 28.5549 97.6223 28.9364C96.9051 29.3026 96.1422 29.4857 95.3335 29.4857ZM96.3634 27.0366C96.6991 27.0366 97.0196 26.9832 97.3247 26.8764C97.6299 26.7696 97.9122 26.6246 98.1716 26.4415C98.431 26.2584 98.6599 26.0448 98.8583 25.8007C99.0566 25.5413 99.2092 25.2819 99.316 25.0225V22.1614C99.1329 21.6884 98.8735 21.2764 98.5378 20.9254C98.2174 20.5745 97.8512 20.3074 97.4392 20.1243C97.0424 19.926 96.6228 19.8268 96.1803 19.8268C95.7073 19.8268 95.28 19.926 94.8986 20.1243C94.5171 20.3227 94.189 20.605 93.9144 20.9712C93.6397 21.3222 93.4261 21.7189 93.2735 22.1614C93.1362 22.5887 93.0675 23.0388 93.0675 23.5118C93.0675 24.0001 93.1514 24.4579 93.3193 24.8851C93.4871 25.3124 93.716 25.6862 94.0059 26.0067C94.3111 26.3271 94.6621 26.5789 95.0588 26.762C95.4708 26.9451 95.9057 27.0366 96.3634 27.0366Z" fill="black"/>
<path d="M110.71 29.6459C109.748 29.6459 108.879 29.4857 108.1 29.1653C107.322 28.8296 106.658 28.3794 106.109 27.8148C105.56 27.235 105.132 26.5789 104.827 25.8464C104.537 25.0988 104.392 24.3129 104.392 23.4889C104.392 22.3445 104.644 21.2993 105.148 20.3532C105.667 19.4072 106.399 18.6519 107.345 18.0873C108.306 17.5074 109.436 17.2175 110.733 17.2175C112.045 17.2175 113.166 17.5074 114.097 18.0873C115.028 18.6519 115.737 19.4072 116.226 20.3532C116.729 21.284 116.981 22.2911 116.981 23.3745C116.981 23.5576 116.973 23.7483 116.958 23.9467C116.943 24.1298 116.928 24.2824 116.912 24.4045H107.643C107.704 25.0148 107.879 25.5489 108.169 26.0067C108.474 26.4644 108.856 26.8154 109.313 27.0595C109.786 27.2884 110.29 27.4029 110.824 27.4029C111.434 27.4029 112.007 27.2579 112.541 26.968C113.09 26.6628 113.464 26.2661 113.662 25.7778L116.294 26.5102C116.004 27.1206 115.585 27.6623 115.036 28.1353C114.501 28.6083 113.868 28.9822 113.136 29.2568C112.403 29.5162 111.595 29.6459 110.71 29.6459ZM107.574 22.459H113.845C113.784 21.8486 113.609 21.3222 113.319 20.8797C113.044 20.4219 112.678 20.0709 112.22 19.8268C111.762 19.5674 111.251 19.4377 110.687 19.4377C110.137 19.4377 109.634 19.5674 109.176 19.8268C108.734 20.0709 108.367 20.4219 108.077 20.8797C107.803 21.3222 107.635 21.8486 107.574 22.459Z" fill="black"/>
<path d="M132.265 29.417V18.751L128.1 26.6933H126.337L122.172 18.751V29.417H119.013V13.1663H122.4L127.207 22.4132L132.059 13.1663H135.424V29.417H132.265Z" fill="black"/>
<path d="M138.519 29.417V17.4235H141.586V29.417H138.519ZM138.519 15.7527V12.7085H141.586V15.7527H138.519Z" fill="black"/>
<path d="M155.5 29.417H152.433V22.6878C152.433 21.7265 152.265 21.0246 151.929 20.5821C151.593 20.1396 151.128 19.9183 150.533 19.9183C150.121 19.9183 149.701 20.0252 149.274 20.2388C148.862 20.4524 148.488 20.75 148.153 21.1314C147.817 21.4976 147.573 21.9249 147.42 22.4132V29.417H144.353V17.4235H147.123V19.6437C147.428 19.1249 147.817 18.69 148.29 18.339C148.763 17.9728 149.305 17.6982 149.915 17.5151C150.541 17.3167 151.197 17.2175 151.883 17.2175C152.631 17.2175 153.241 17.3548 153.714 17.6295C154.203 17.8889 154.569 18.2475 154.813 18.7053C155.073 19.1478 155.248 19.6513 155.34 20.2159C155.446 20.7805 155.5 21.3527 155.5 21.9325V29.417Z" fill="black"/>
<path d="M163.728 29.6459C162.767 29.6459 161.897 29.4857 161.119 29.1653C160.341 28.8296 159.677 28.3794 159.128 27.8148C158.579 27.235 158.151 26.5789 157.846 25.8464C157.556 25.0988 157.411 24.3129 157.411 23.4889C157.411 22.3445 157.663 21.2993 158.167 20.3532C158.685 19.4072 159.418 18.6519 160.364 18.0873C161.325 17.5074 162.454 17.2175 163.751 17.2175C165.064 17.2175 166.185 17.5074 167.116 18.0873C168.047 18.6519 168.756 19.4072 169.245 20.3532C169.748 21.284 170 22.2911 170 23.3745C170 23.5576 169.992 23.7483 169.977 23.9467C169.962 24.1298 169.947 24.2824 169.931 24.4045H160.661C160.722 25.0148 160.898 25.5489 161.188 26.0067C161.493 26.4644 161.875 26.8154 162.332 27.0595C162.805 27.2884 163.309 27.4029 163.843 27.4029C164.453 27.4029 165.026 27.2579 165.56 26.968C166.109 26.6628 166.483 26.2661 166.681 25.7778L169.313 26.5102C169.023 27.1206 168.604 27.6623 168.054 28.1353C167.52 28.6083 166.887 28.9822 166.155 29.2568C165.422 29.5162 164.614 29.6459 163.728 29.6459ZM160.593 22.459H166.864C166.803 21.8486 166.628 21.3222 166.338 20.8797C166.063 20.4219 165.697 20.0709 165.239 19.8268C164.781 19.5674 164.27 19.4377 163.706 19.4377C163.156 19.4377 162.653 19.5674 162.195 19.8268C161.752 20.0709 161.386 20.4219 161.096 20.8797C160.822 21.3222 160.654 21.8486 160.593 22.459Z" fill="black"/>
</svg>
