<svg width="162" height="40" viewBox="0 0 162 40" fill="none" xmlns="http://www.w3.org/2000/svg">
<mask id="mask0_2_1652" style="mask-type:alpha" maskUnits="userSpaceOnUse" x="0" y="-2" width="46" height="44">
<path d="M5.09912 0.943726H45.6651" stroke="#A85535" stroke-width="4" stroke-miterlimit="10"/>
<path d="M4.90234 2.42126H45.4683" stroke="#A85535" stroke-width="4" stroke-miterlimit="10"/>
<path d="M4.70654 3.8985H45.2725" stroke="#A85535" stroke-width="4" stroke-miterlimit="10"/>
<path d="M4.50977 5.37537H45.0761" stroke="#A85535" stroke-width="4" stroke-miterlimit="10"/>
<path d="M4.31445 6.85229H44.8808" stroke="#A85535" stroke-width="4" stroke-miterlimit="10"/>
<path d="M4.11768 8.32983H44.684" stroke="#A85535" stroke-width="4" stroke-miterlimit="10"/>
<path d="M3.92188 9.8067H44.4878" stroke="#A85535" stroke-width="4" stroke-miterlimit="10"/>
<path d="M3.7251 11.2836H44.291" stroke="#A85535" stroke-width="4" stroke-miterlimit="10"/>
<path d="M3.52979 12.7608H44.0957" stroke="#A85535" stroke-width="4" stroke-miterlimit="10"/>
<path d="M3.3335 14.2377H43.8994" stroke="#A85535" stroke-width="4" stroke-miterlimit="10"/>
<path d="M3.13818 15.7142H43.7041" stroke="#A85535" stroke-width="4" stroke-miterlimit="10"/>
<path d="M2.94189 17.1921H43.5078" stroke="#A85535" stroke-width="4" stroke-miterlimit="10"/>
<path d="M2.74561 18.669H43.312" stroke="#A85535" stroke-width="4" stroke-miterlimit="10"/>
<path d="M2.54883 20.1462H43.1152" stroke="#A85535" stroke-width="4" stroke-miterlimit="10"/>
<path d="M2.35303 21.6231H42.9194" stroke="#A85535" stroke-width="4" stroke-miterlimit="10"/>
<path d="M2.15674 23.1H42.7231" stroke="#A85535" stroke-width="4" stroke-miterlimit="10"/>
<path d="M1.96094 24.5775H42.5269" stroke="#A85535" stroke-width="4" stroke-miterlimit="10"/>
<path d="M1.76416 26.0544H42.3301" stroke="#A85535" stroke-width="4" stroke-miterlimit="10"/>
<path d="M1.56885 27.5316H42.1348" stroke="#A85535" stroke-width="4" stroke-miterlimit="10"/>
<path d="M1.37256 29.0082H41.9385" stroke="#A85535" stroke-width="4" stroke-miterlimit="10"/>
<path d="M1.17627 30.4851H41.7422" stroke="#A85535" stroke-width="4" stroke-miterlimit="10"/>
<path d="M0.980957 31.9626H41.5469" stroke="#A85535" stroke-width="4" stroke-miterlimit="10"/>
<path d="M0.783691 33.4392H41.3501" stroke="#A85535" stroke-width="4" stroke-miterlimit="10"/>
<path d="M0.587891 34.9167H41.1543" stroke="#A85535" stroke-width="4" stroke-miterlimit="10"/>
<path d="M0.39209 36.3936H40.9585" stroke="#A85535" stroke-width="4" stroke-miterlimit="10"/>
<path d="M0.196777 37.8708H40.7627" stroke="#A85535" stroke-width="4" stroke-miterlimit="10"/>
<path d="M0 39.348H40.5659" stroke="#A85535" stroke-width="4" stroke-miterlimit="10"/>
</mask>
<g mask="url(#mask0_2_1652)">
<path d="M22.5664 39.7172C33.7391 39.7172 42.7964 30.8614 42.7964 19.9373C42.7964 9.01308 33.7391 0.157288 22.5664 0.157288C11.3937 0.157288 2.33643 9.01308 2.33643 19.9373C2.33643 30.8614 11.3937 39.7172 22.5664 39.7172Z" fill="#C77955"/>
</g>
<path d="M22.5664 39.7172C33.7391 39.7172 42.7964 30.8614 42.7964 19.9372C42.7964 9.01302 33.7391 0.157227 22.5664 0.157227C11.3937 0.157227 2.33643 9.01302 2.33643 19.9372C2.33643 30.8614 11.3937 39.7172 22.5664 39.7172Z" fill="#C77955"/>
<path d="M21.2033 39.5237C32.074 39.5237 40.8865 30.7112 40.8865 19.8405C40.8865 8.96971 32.074 0.157227 21.2033 0.157227C10.3325 0.157227 1.52002 8.96971 1.52002 19.8405C1.52002 30.7112 10.3325 39.5237 21.2033 39.5237Z" fill="#133951"/>
<path d="M36.0079 19.8043C36.2061 19.8043 36.2066 19.496 36.0079 19.496C35.8092 19.496 35.8092 19.8043 36.0079 19.8043Z" fill="#FCE8D4"/>
<path d="M33.0802 17.5657C33.2784 17.5657 33.2789 17.2574 33.0802 17.2574C32.8815 17.2574 32.8815 17.5657 33.0802 17.5657Z" fill="#FCE8D4"/>
<path d="M34.8018 20.6656C35.0001 20.6656 35.0005 20.3574 34.8018 20.3574C34.6032 20.3574 34.6032 20.6656 34.8018 20.6656Z" fill="#FCE8D4"/>
<path d="M33.9415 12.2694C34.1397 12.2694 34.1402 11.9612 33.9415 11.9612C33.7428 11.9612 33.7428 12.2694 33.9415 12.2694Z" fill="#FCE8D4"/>
<path d="M35.3619 25.316C35.5601 25.316 35.5606 25.0078 35.3619 25.0078C35.1632 25.0078 35.1632 25.316 35.3619 25.316Z" fill="#FCE8D4"/>
<path d="M7.0079 21.9576C7.20611 21.9576 7.20659 21.6494 7.0079 21.6494C6.80922 21.6494 6.80922 21.9576 7.0079 21.9576Z" fill="#FCE8D4"/>
<path d="M5.77987 17.3723C5.97809 17.3723 5.97856 17.0641 5.77987 17.0641C5.58119 17.0641 5.58119 17.3723 5.77987 17.3723Z" fill="#FCE8D4"/>
<path d="M36.5238 17.6551C36.685 17.6551 36.8391 17.5134 36.832 17.3469C36.8244 17.18 36.6969 17.0387 36.5238 17.0387C36.3626 17.0387 36.2085 17.1805 36.2156 17.3469C36.2232 17.5138 36.3507 17.6551 36.5238 17.6551Z" fill="#FCE8D4"/>
<path d="M17.9877 5.96472C18.1489 5.96472 18.303 5.82293 18.2959 5.65649C18.2883 5.48958 18.1607 5.34827 17.9877 5.34827C17.8264 5.34827 17.6723 5.49005 17.6794 5.65649C17.687 5.82341 17.8146 5.96472 17.9877 5.96472Z" fill="#FCE8D4"/>
<path d="M20.8944 8.41912C21.0556 8.41912 21.2097 8.27734 21.2026 8.1109C21.195 7.94398 21.0675 7.80267 20.8944 7.80267C20.7332 7.80267 20.5791 7.94446 20.5862 8.1109C20.5938 8.27781 20.7213 8.41912 20.8944 8.41912Z" fill="#FCE8D4"/>
<path d="M26.6424 6.80389C26.8037 6.80389 26.9578 6.66211 26.9507 6.49566C26.9431 6.32875 26.8155 6.18744 26.6424 6.18744C26.4812 6.18744 26.3271 6.32922 26.3342 6.49566C26.3418 6.66258 26.4694 6.80389 26.6424 6.80389Z" fill="#FCE8D4"/>
<path d="M9.72008 12.2297C9.88131 12.2297 10.0354 12.0879 10.0283 11.9214C10.0207 11.7545 9.89316 11.6132 9.72008 11.6132C9.55886 11.6132 9.40475 11.755 9.41186 11.9214C9.41945 12.0884 9.547 12.2297 9.72008 12.2297Z" fill="#FCE8D4"/>
<path d="M8.62243 30.121C8.78365 30.121 8.93776 29.9792 8.93065 29.8127C8.92306 29.6458 8.79551 29.5045 8.62243 29.5045C8.4612 29.5045 8.30709 29.6463 8.3142 29.8127C8.32179 29.9797 8.44935 30.121 8.62243 30.121Z" fill="#FCE8D4"/>
<path d="M34.6512 21.2323C34.8931 21.2323 35.1245 21.0198 35.1131 20.7704C35.1017 20.52 34.9101 20.3085 34.6512 20.3085C34.4094 20.3085 34.178 20.521 34.1894 20.7704C34.2007 21.0208 34.3923 21.2323 34.6512 21.2323Z" fill="#FCE8D4"/>
<path d="M6.03844 17.7013C6.28028 17.7013 6.51168 17.4889 6.5003 17.2395C6.48892 16.9891 6.29735 16.7776 6.03844 16.7776C5.7966 16.7776 5.56519 16.99 5.57658 17.2395C5.58796 17.4898 5.77953 17.7013 6.03844 17.7013Z" fill="#FCE8D4"/>
<path d="M6.03844 17.7013C6.28028 17.7013 6.51168 17.4889 6.5003 17.2395C6.48892 16.9891 6.29735 16.7776 6.03844 16.7776C5.7966 16.7776 5.56519 16.99 5.57658 17.2395C5.58796 17.4898 5.77953 17.7013 6.03844 17.7013Z" fill="#FCE8D4"/>
<path d="M7.4161 16.8768C7.61432 16.8768 7.61479 16.5686 7.4161 16.5686C7.21742 16.5686 7.21742 16.8768 7.4161 16.8768Z" fill="#FCE8D4"/>
<path d="M31.279 22.423C30.858 21.4205 30.4179 20.4166 30.1884 19.3535C29.7782 17.4529 30.0618 15.4817 30.0798 13.5375C30.095 11.8746 29.8641 10.102 28.9541 8.74631C28.6757 8.33139 28.0835 8.28776 27.7359 8.64673C27.1427 9.25891 26.7164 10.0693 26.0857 10.6611C25.2592 11.4364 24.1116 11.7968 22.9812 11.8741C21.8507 11.9514 20.7202 11.7702 19.6011 11.5896C19.1374 11.5146 18.6565 11.4331 18.2701 11.1661C18.0861 11.039 17.931 10.875 17.7892 10.7023C16.894 9.61645 16.4283 8.14171 15.257 7.36167C15.1025 7.25877 14.9061 7.16867 14.7383 7.24739C14.6363 7.29528 14.5704 7.39533 14.514 7.49302C13.5884 9.10053 13.9227 11.1225 13.4589 12.9187C13.3342 13.401 13.1402 13.8851 12.777 14.2265C12.5224 14.466 12.1995 14.6215 11.9334 14.8487C11.6219 15.1147 11.4004 15.4675 11.1837 15.8151C10.3041 17.2253 9.40978 18.6702 9.0456 20.2919C8.6321 22.1337 8.93559 24.0518 9.24049 25.9149C9.39366 26.8519 9.54682 27.7889 9.69998 28.7259C9.80431 29.3632 9.89061 29.2859 10.031 29.8521C10.1969 30.5203 10.4682 31.6128 10.3999 32.9533C10.3439 34.0445 10.0537 34.2484 10.3027 34.8013C10.5682 35.3902 11.0491 35.8549 11.5612 36.249C13.2759 37.5682 15.4074 38.2311 17.5341 38.6266C20.4295 39.1653 23.4463 39.2487 26.2977 38.5109C28.7791 37.8688 31.1771 36.5643 32.8766 34.6182C34.44 32.8277 33.5495 29.3414 33.0018 27.2777C32.5608 25.6162 31.9439 24.0063 31.2786 22.423H31.279Z" fill="#FEBB54"/>
<path d="M27.5127 15.6648C28.0087 15.1579 28.3146 14.4689 28.3582 13.761C28.362 13.7026 28.3317 13.6737 28.3065 13.5618C28.1638 12.9302 28.3027 12.648 28.2098 12.5446C28.0941 12.4157 27.5905 12.5342 25.8028 13.7244C25.9716 14.0341 26.5136 13.9862 26.6478 14.3124C26.7403 14.5372 26.5653 14.7838 26.3695 14.9275C26.1736 15.0716 25.936 15.1821 25.8208 15.3964C25.6534 15.707 25.919 16.6824 26.3353 16.7185C26.5975 16.7412 27.3178 15.8649 27.5132 15.6653L27.5127 15.6648Z" fill="#C77955"/>
<path d="M31.8334 30.5518C31.3867 30.2559 30.7973 30.5504 30.3472 30.842C29.7929 31.2015 29.2386 31.5609 28.6838 31.9203C27.9644 32.3869 27.1237 32.8739 26.2995 32.6368C26.1246 32.5866 25.9477 32.4936 25.8661 32.3305C25.8111 32.2205 25.8064 32.092 25.8149 31.9687C25.8628 31.2768 26.2763 30.6689 26.4731 30.0036C26.6841 29.2924 26.6429 28.5308 26.7918 27.8039C27.2266 25.6804 29.2424 23.9449 29.0304 21.7878C28.9915 21.3937 28.8611 20.985 28.5557 20.7332C28.211 20.4491 27.7273 20.4259 27.2806 20.4084C26.2398 20.3676 25.2008 20.2865 24.1662 20.1661C23.8394 20.1281 23.4805 20.0688 23.2695 19.8166C22.9627 19.4491 23.1286 18.8876 22.9859 18.4305C22.7312 17.6163 21.6719 17.438 21.0175 16.8908C20.6197 16.5579 20.328 16.0486 19.8254 15.9201C19.3256 15.7926 18.8277 16.0961 18.4009 16.3853C17.7494 16.8268 17.0196 17.4248 17.0936 18.2081C17.1728 19.0522 17.8499 18.9393 18.3886 19.1835C18.7917 19.3661 18.6703 19.12 18.7006 19.6554C18.7167 19.9437 18.5043 20.1898 18.6115 20.4966C18.7537 20.9025 19.2853 20.9783 19.7154 20.985C20.4926 20.9973 21.3371 20.9883 21.9512 20.5113C22.4372 20.7669 22.3633 21.5507 21.9469 21.9082C21.5306 22.2658 20.9397 22.3151 20.3921 22.3483C19.4024 22.4076 18.3696 22.4602 17.4611 22.0642C17.0751 21.8959 16.7261 21.6522 16.3472 21.4682C15.1769 20.8996 13.8155 20.9371 12.5152 20.9869C13.87 20.369 14.7112 19.0166 15.4728 17.7372C15.8095 17.172 16.1556 16.575 16.176 15.9173C16.1964 15.2596 15.763 14.5383 15.1077 14.4833C14.7487 15.1624 14.1721 15.7243 13.484 16.0652C13.2185 16.1971 12.9321 16.299 12.7059 16.4911C12.4797 16.6826 12.3232 16.998 12.4223 17.2773C12.7874 17.3318 13.1554 17.2133 13.5243 17.2043C13.8933 17.1952 14.3238 17.3555 14.4111 17.7145C14.4642 17.9321 14.3736 18.1574 14.2721 18.357C13.8454 19.1992 13.1858 19.9214 12.3863 20.4235C12.1558 20.5682 11.8244 20.6829 11.6394 20.4833C11.5142 20.3481 11.5318 20.1381 11.5574 19.9555C11.62 19.5088 11.6821 19.0626 11.7447 18.6159C11.7997 18.2233 11.8504 17.8036 11.6778 17.4466C11.4815 17.0416 11.023 16.8216 10.5682 16.8178C9.91288 17.9151 9.32346 19.0527 9.04511 20.2936C8.63162 22.1354 8.9351 24.0535 9.24 25.9166C9.39317 26.8536 9.54633 27.7906 9.6995 28.7276C9.76304 29.116 9.83037 29.5148 10.0305 29.8538C10.4426 30.5504 11.4128 31.0673 11.233 31.8563C11.1297 32.3096 10.6706 32.5771 10.3994 32.955C10.0224 33.4799 10.0366 34.214 10.3022 34.8029C10.4302 35.0875 10.609 35.3426 10.8167 35.5749C12.2502 36.0249 13.6837 36.4745 15.1167 36.9245C15.8483 37.154 16.5819 37.3844 17.3364 37.521C19.0141 37.8254 20.7377 37.6604 22.4349 37.494C24.316 37.31 26.1966 37.126 28.0778 36.9415C29.2324 36.8287 30.4757 36.6779 31.3293 35.8922C31.9121 35.3559 32.2312 34.5862 32.3948 33.8114C32.5854 32.909 32.5816 31.9426 32.2231 31.0929C32.1354 30.8847 32.0197 30.677 31.8319 30.5523L31.8334 30.5518Z" fill="#FCE8D4"/>
<path d="M27.1747 29.8966C27.3412 30.009 27.3952 30.2584 27.2904 30.4292C27.2222 30.5406 27.1046 30.6108 27.0197 30.7099C26.9348 30.809 26.8912 30.9716 26.9846 31.0627C27.0353 31.1125 27.1112 31.1243 27.1818 31.13C28.3512 31.2244 31.3832 29.4537 30.4822 27.998C30.0327 27.2715 29.0374 27.4982 28.4688 27.9491C28.0828 28.2555 28.0714 28.5841 27.8249 28.9833C27.6252 29.3058 27.2421 29.4903 27.1747 29.8962V29.8966Z" fill="#C77955"/>
<path d="M15.9048 28.3977C15.2196 28.5399 14.523 28.5755 13.8283 28.6049C13.6016 28.6144 13.328 28.5362 12.9966 28.4077C11.8272 27.9538 10.9865 26.7793 11.0908 26.5863C11.1818 26.4175 11.8969 27.1819 13.3697 27.4768C14.2916 27.4768 14.8568 27.6627 15.4235 27.4963C15.7635 27.3962 15.7085 27.3265 16.2685 27.125C16.4278 27.0676 16.6383 26.9993 17.0224 26.8561C17.2107 26.7859 17.1979 26.7883 17.2671 26.7641C17.6892 26.6162 17.9206 26.6133 18.115 26.5607C18.7224 26.3957 18.9391 25.7522 19.0387 25.8048C19.1445 25.8608 19.0411 26.6598 18.5124 27.2881C18.0306 27.86 17.3364 28.1018 15.9048 28.3982V28.3977Z" fill="#FEBB54"/>
<path d="M12.2712 27.4969C12.8824 27.7136 13.5477 27.7127 14.1945 27.6681C15.3264 27.5899 16.5213 27.3499 17.3384 26.5632C16.5659 26.8416 15.6816 26.9445 14.9394 26.5931C14.2476 26.2654 13.7549 25.2905 13.993 24.5678C14.0584 24.3687 14.1694 24.2231 14.2576 24.1278C14.7261 24.142 14.8636 24.0453 14.9034 23.9556C14.9636 23.8191 14.801 23.6925 14.8603 23.5251C14.9409 23.2975 15.305 23.3582 15.3771 23.1808C15.4743 22.9404 15.0025 22.3429 14.4491 22.296C14.1352 22.2694 14.0641 22.3093 13.4419 22.6725C13.036 22.9096 12.54 22.9878 12.0805 22.8882C11.9781 22.866 11.834 22.8579 11.5741 22.8408C11.2213 22.8171 11.0444 22.8057 10.9852 22.837C10.704 22.9854 10.8789 23.6488 10.969 24.8158C11.0667 26.0862 10.9411 26.3532 11.2403 26.7795C11.5381 27.2029 11.9658 27.3902 12.2712 27.4983V27.4969Z" fill="#5D554D"/>
<path d="M11.1235 26.08C11.2108 25.9449 11.336 25.8287 11.4816 25.7438C11.6267 25.6575 11.7902 25.6011 11.9567 25.5679C12.2919 25.5024 12.6391 25.528 12.9696 25.6125C13.2958 25.6973 13.5964 25.8277 13.8843 25.9525C14.1721 26.0772 14.4481 26.199 14.7245 26.2754C14.8616 26.3162 15.0038 26.3441 15.1499 26.3659C15.296 26.3897 15.4453 26.4044 15.598 26.4176L16.5322 26.4897C17.1543 26.5386 17.7636 26.5717 18.3981 26.4736C18.1198 26.6348 17.8068 26.7396 17.4896 26.8079C17.1714 26.8771 16.8475 26.9079 16.5279 26.9255C16.3681 26.934 16.2088 26.9392 16.0504 26.9416C15.8925 26.9459 15.7327 26.9459 15.57 26.9426C15.4074 26.9392 15.2428 26.9274 15.0759 26.9084C14.9095 26.8866 14.7411 26.8558 14.5752 26.8088C14.2437 26.714 13.944 26.5708 13.6614 26.4271C13.3788 26.283 13.1104 26.1374 12.8358 26.0259C12.567 25.9169 12.2768 25.8458 11.9832 25.8382C11.6902 25.8306 11.3877 25.8922 11.1245 26.0805L11.1235 26.08Z" fill="#0D1212"/>
<path d="M10.2561 22.507C10.2339 22.8669 10.1983 23.186 10.1817 23.5014C10.1736 23.6583 10.1684 23.8129 10.1651 23.9656C10.1637 24.1188 10.1651 24.2701 10.1703 24.4218C10.1817 24.7253 10.2092 25.0269 10.25 25.3384C10.2889 25.6514 10.3496 25.9667 10.3984 26.3243C10.1044 26.1128 9.89148 25.8159 9.73974 25.492C9.58753 25.1667 9.50644 24.8078 9.49316 24.4464C9.48747 24.2658 9.49838 24.0846 9.52588 23.9063C9.55528 23.7285 9.60033 23.5535 9.6634 23.3862C9.7919 23.0528 9.97968 22.7408 10.2561 22.5065V22.507Z" fill="#FEBB54"/>
<path d="M16.2384 24.1526C16.4366 24.1526 16.4371 23.8444 16.2384 23.8444C16.0397 23.8444 16.0397 24.1526 16.2384 24.1526Z" fill="#5D554D"/>
<path d="M17.7892 24.2815C17.9874 24.2815 17.9878 23.9733 17.7892 23.9733C17.5905 23.9733 17.5905 24.2815 17.7892 24.2815Z" fill="#5D554D"/>
<path d="M17.2721 25.2499C17.4703 25.2499 17.4707 24.9417 17.2721 24.9417C17.0734 24.9417 17.0734 25.2499 17.2721 25.2499Z" fill="#5D554D"/>
<path d="M15.0751 24.63C15.2235 24.63 15.2239 24.399 15.0751 24.399C14.9262 24.399 14.9262 24.63 15.0751 24.63Z" fill="#5D554D"/>
<path d="M15.8512 25.044C15.9503 25.044 15.9503 24.8899 15.8512 24.8899C15.7521 24.8899 15.7521 25.044 15.8512 25.044Z" fill="#5D554D"/>
<path d="M15.0113 25.6251C15.1104 25.6251 15.1104 25.4709 15.0113 25.4709C14.9122 25.4709 14.9122 25.6251 15.0113 25.6251Z" fill="#5D554D"/>
<path d="M16.691 23.9454C16.7901 23.9454 16.7901 23.7913 16.691 23.7913C16.5919 23.7913 16.5919 23.9454 16.691 23.9454Z" fill="#5D554D"/>
<path d="M18.9513 24.3337C19.0504 24.3337 19.0504 24.1796 18.9513 24.1796C18.8522 24.1796 18.8522 24.3337 18.9513 24.3337Z" fill="#5D554D"/>
<path d="M10.4254 24.3985C10.5245 24.3985 10.5245 24.2444 10.4254 24.2444C10.3263 24.2444 10.3263 24.3985 10.4254 24.3985Z" fill="#5D554D"/>
<path d="M9.9088 23.752C10.0079 23.752 10.0079 23.5979 9.9088 23.5979C9.8097 23.5979 9.8097 23.752 9.9088 23.752Z" fill="#5D554D"/>
<path d="M10.2965 23.4291C10.3956 23.4291 10.3956 23.275 10.2965 23.275C10.1974 23.275 10.1974 23.4291 10.2965 23.4291Z" fill="#5D554D"/>
<path d="M9.77941 25.1729C9.87851 25.1729 9.87851 25.0188 9.77941 25.0188C9.6803 25.0188 9.6803 25.1729 9.77941 25.1729Z" fill="#5D554D"/>
<path d="M10.4906 24.5011C10.639 24.5011 10.6395 24.2701 10.4906 24.2701C10.3417 24.2701 10.3417 24.5011 10.4906 24.5011Z" fill="#5D554D"/>
<path d="M9.84409 23.8552C9.99252 23.8552 9.99299 23.6243 9.84409 23.6243C9.6952 23.6243 9.6952 23.8552 9.84409 23.8552Z" fill="#5D554D"/>
<path d="M27.6483 10.0545C27.7621 9.92129 27.9248 9.77382 28.0884 9.83641C28.1515 9.8606 28.1994 9.91276 28.2435 9.96445C29.2459 11.1357 29.5906 12.8362 29.1231 14.3057C28.7063 15.6154 27.6868 16.863 28.0106 18.1983C28.2847 19.3283 29.4147 19.9998 30.4423 20.5446C30.4404 20.4607 30.4423 20.3772 30.4451 20.2938C30.3451 19.9846 30.2569 19.6716 30.1881 19.3535C29.7779 17.4529 30.0615 15.4817 30.0795 13.5375C30.0947 11.8745 29.8638 10.102 28.9538 8.74625C28.6754 8.33133 28.0832 8.2877 27.7356 8.64667C27.1424 9.25885 26.7161 10.0692 26.0854 10.661C25.2589 11.4363 24.1113 11.7967 22.9809 11.874C21.8504 11.9513 20.7199 11.7702 19.6008 11.5895C19.1371 11.5146 18.6562 11.433 18.2698 11.166C18.0858 11.039 17.9307 10.8749 17.7889 10.7023C16.8937 9.61639 16.428 8.14165 15.2567 7.36161C15.1022 7.25871 14.9058 7.16861 14.738 7.24733C14.646 7.29048 14.5834 7.37631 14.5308 7.46451C14.6043 7.69307 14.7162 7.92258 14.8195 8.12648C15.3435 9.15785 15.5602 10.341 15.4502 11.4913C15.3848 12.1761 15.1738 12.3714 15.9012 12.4601C16.3901 12.5199 16.8998 12.2714 17.3105 12.6768C17.4451 12.8101 17.5248 12.9907 17.5665 13.1752C17.8278 14.3303 16.713 15.4874 17.0269 16.6297C17.7448 14.8813 19.6985 13.7295 21.5758 13.9477C22.6096 14.0676 23.5636 14.5508 24.4627 15.0748C24.1204 14.3521 24.6718 13.5418 25.1911 12.9334C26.0105 11.9731 26.8294 11.0134 27.6488 10.0531L27.6483 10.0545Z" fill="#C77955"/>
<path d="M22.3324 19.4314C22.3423 19.9203 21.6481 20.3139 21.3048 20.5083C20.9785 20.6932 20.6769 20.8639 20.2772 20.8179C19.7935 20.7624 19.262 20.4006 19.1657 19.897C19.0343 19.208 19.7727 18.5489 20.4541 18.4086C21.3252 18.2293 22.32 18.8533 22.3324 19.4314Z" fill="white"/>
<path d="M22.3453 19.4311C22.3501 19.524 22.3321 19.6179 22.2979 19.7061C22.2605 19.7924 22.2126 19.8749 22.1547 19.9489C22.0409 20.0992 21.9001 20.2249 21.7535 20.3397C21.6056 20.452 21.4491 20.5511 21.2917 20.6412C21.1352 20.7342 20.9645 20.8224 20.7743 20.8679C20.5847 20.9139 20.3822 20.9092 20.1996 20.8598C20.1081 20.8352 20.0194 20.8053 19.935 20.7669C19.8497 20.7304 19.7676 20.6877 19.6889 20.6393C19.6083 20.5933 19.5353 20.5369 19.4604 20.4805C19.3835 20.426 19.3006 20.3733 19.2095 20.3131C19.1232 20.25 19.0341 20.1718 18.9786 20.0698C18.9231 19.9684 18.9032 19.8489 18.906 19.7336C18.9103 19.6758 18.9127 19.6175 18.9307 19.5629L18.9553 19.4814C18.9634 19.4543 18.9776 19.4302 18.9895 19.405L19.0279 19.332C19.0412 19.3083 19.0578 19.2869 19.0729 19.2647L19.1189 19.2002L19.1692 19.1409L19.219 19.083C19.2365 19.065 19.2546 19.0475 19.2716 19.029C19.2887 19.011 19.3058 18.9929 19.3219 18.9745C19.3394 18.9574 19.3579 18.9408 19.3745 18.9232L19.4253 18.8711L19.4789 18.8222L19.532 18.7734L19.5879 18.7284C19.7368 18.6084 19.8966 18.5041 20.0692 18.4206C20.2413 18.3381 20.4306 18.2755 20.6259 18.257C20.8208 18.2385 21.0171 18.257 21.2025 18.3082C21.3884 18.3571 21.5648 18.4362 21.7246 18.5391C21.884 18.642 22.0286 18.7682 22.1433 18.918C22.2007 18.9925 22.25 19.0736 22.2856 19.1599C22.3226 19.2462 22.3368 19.3391 22.3453 19.4306V19.4311ZM22.3207 19.4316C22.3235 19.342 22.2856 19.2571 22.2429 19.1812C22.1993 19.1049 22.141 19.0375 22.0774 18.9773C21.9494 18.8569 21.7972 18.7663 21.6393 18.6956C21.323 18.5534 20.9787 18.4889 20.6463 18.5083C20.3182 18.5301 19.9791 18.661 19.7216 18.8882L19.6737 18.9308L19.6296 18.9773L19.586 19.0238L19.5476 19.074C19.5348 19.0906 19.5234 19.1087 19.5111 19.1257C19.5002 19.1437 19.4917 19.1632 19.4817 19.1812C19.4717 19.1997 19.4637 19.2187 19.4547 19.2372C19.4476 19.2566 19.4423 19.277 19.4357 19.2964C19.43 19.3159 19.4234 19.3353 19.4182 19.3548L19.4087 19.414C19.4058 19.4335 19.4016 19.4524 19.3997 19.4714L19.3973 19.5278C19.393 19.5648 19.3963 19.6004 19.3959 19.6345C19.3921 19.6687 19.3997 19.7019 19.3992 19.7341C19.402 19.7996 19.4106 19.8607 19.4082 19.9323C19.4082 20.003 19.403 20.0869 19.4144 20.1761C19.4272 20.2638 19.4604 20.352 19.5173 20.4198C19.5761 20.4852 19.6453 20.5417 19.7207 20.5886C19.7572 20.6142 19.798 20.6322 19.8369 20.6536C19.8781 20.6702 19.9175 20.6901 19.9602 20.7024C20.0436 20.7318 20.1313 20.7479 20.2176 20.7555C20.3921 20.7721 20.561 20.7403 20.7174 20.6797C20.8749 20.6204 21.0257 20.535 21.1845 20.4511C21.3429 20.3638 21.5018 20.2837 21.6544 20.1936C21.8062 20.1035 21.956 20.0077 22.0822 19.8854C22.1467 19.8256 22.1998 19.7559 22.2458 19.6815C22.2875 19.6047 22.3136 19.5203 22.3202 19.4316H22.3207Z" fill="#0C0B16"/>
<path d="M22.1998 19.8159C22.141 20.0108 21.9603 20.1332 21.599 20.3778C21.176 20.6638 20.9408 20.8236 20.651 20.7989C20.164 20.7577 19.6609 20.2076 19.668 19.5902C19.6756 18.924 20.2741 18.3839 20.8919 18.3663C21.7365 18.3431 22.3539 19.3057 22.2002 19.8159H22.1998Z" fill="#080A1A"/>
<path opacity="0.49" d="M21.0041 18.7796C20.9757 18.8142 20.9121 18.7862 20.8206 18.7834C20.5664 18.7758 20.4782 18.809 20.4673 18.7796C20.4531 18.7426 20.5878 18.6416 20.7357 18.6136C20.7737 18.6065 20.9306 18.5771 20.9918 18.661C21.0165 18.6952 21.0274 18.7502 21.0041 18.7796Z" fill="white"/>
<path opacity="0.7" d="M21.2786 19.025C21.2786 19.1132 21.207 19.1848 21.1188 19.1848C21.0306 19.1848 20.959 19.1132 20.959 19.025C20.959 18.9368 21.0306 18.8652 21.1188 18.8652C21.207 18.8652 21.2786 18.9368 21.2786 19.025Z" fill="white"/>
<path d="M13.7609 19.0989C14.3499 18.8729 14.6442 18.2122 14.4182 17.6232C14.1922 17.0341 13.5315 16.7398 12.9425 16.9658C12.3535 17.1918 12.0592 17.8525 12.2852 18.4415C12.5112 19.0306 13.1719 19.3249 13.7609 19.0989Z" fill="white"/>
<path d="M14.5003 17.9592C14.5193 18.2608 14.4239 18.5657 14.2366 18.8113C14.1427 18.9342 14.0261 19.0432 13.8891 19.1262C13.8194 19.1665 13.7473 19.1973 13.6776 19.2552C13.6415 19.2794 13.6041 19.3078 13.5638 19.3277C13.5235 19.3448 13.4803 19.3557 13.4372 19.359C13.2636 19.3647 13.0896 19.3197 12.9426 19.2353C12.7946 19.1523 12.6747 19.0389 12.5694 18.9251C12.3574 18.699 12.2104 18.4211 12.1701 18.1119C12.1502 17.9583 12.1578 17.7975 12.2014 17.6444C12.2441 17.4912 12.3223 17.3466 12.4266 17.2242C12.5305 17.1019 12.6585 16.9976 12.8036 16.925C12.9483 16.852 13.1081 16.8084 13.2698 16.7965C13.596 16.7685 13.9232 16.9094 14.1404 17.1346C14.3604 17.3613 14.4808 17.66 14.4998 17.9597L14.5003 17.9592ZM14.4818 17.9606C14.4704 17.8127 14.4282 17.6671 14.3552 17.5396C14.2836 17.411 14.1826 17.3025 14.0678 17.2176C13.9526 17.1327 13.8231 17.0725 13.6904 17.0355C13.5566 17.0009 13.4196 16.9852 13.283 16.9928C13.0094 17.008 12.7453 17.1351 12.5575 17.3385C12.3731 17.5433 12.255 17.8155 12.2517 18.1062C12.2517 18.2504 12.282 18.3978 12.347 18.5292C12.4119 18.6601 12.5054 18.7796 12.6253 18.8616C12.7448 18.9451 12.8885 18.9844 13.0241 18.9972C13.1607 19.0091 13.2887 19.0034 13.4134 18.9901C13.4447 18.9844 13.476 18.9868 13.5097 18.9953C13.5429 19.001 13.5785 19.0119 13.6154 19.0205C13.6515 19.0266 13.688 19.028 13.7231 19.0228C13.7572 19.0152 13.7895 19.002 13.8231 18.992C13.9545 18.9427 14.0792 18.8663 14.1831 18.7644C14.3926 18.5614 14.5046 18.257 14.4823 17.9606H14.4818Z" fill="#0C0B16"/>
<path d="M13.5834 19.1066C14.1215 19.1066 14.5578 18.6245 14.5578 18.0297C14.5578 17.435 14.1215 16.9528 13.5834 16.9528C13.0452 16.9528 12.6089 17.435 12.6089 18.0297C12.6089 18.6245 13.0452 19.1066 13.5834 19.1066Z" fill="#080A1A"/>
<path opacity="0.49" d="M13.7554 17.3401C13.7307 17.3709 13.6748 17.3458 13.5937 17.3434C13.3704 17.3368 13.2926 17.3662 13.2826 17.3401C13.2703 17.3074 13.3884 17.2187 13.5188 17.1941C13.552 17.1879 13.6904 17.1618 13.7445 17.2358C13.7663 17.2657 13.7758 17.3145 13.7554 17.3401Z" fill="white"/>
<path opacity="0.7" d="M13.1925 17.5574C13.1925 17.611 13.1493 17.6541 13.0958 17.6541C13.0422 17.6541 12.999 17.611 12.999 17.5574C12.999 17.5038 13.0422 17.4606 13.0958 17.4606C13.1493 17.4606 13.1925 17.5038 13.1925 17.5574Z" fill="white"/>
<path d="M13.289 21.2633C13.6285 21.3591 13.8495 21.5336 13.969 21.6298C14.0946 21.7313 14.8258 22.2947 14.6793 22.8646C14.5854 23.2302 14.2411 23.4669 13.923 23.6698C13.5076 23.9344 13.0922 24.199 12.6763 24.4636C12.608 24.5072 12.535 24.5518 12.4544 24.5532C12.3633 24.5547 12.2884 24.511 12.2339 24.4707C10.9801 23.5413 10.9849 22.8348 10.9849 22.8348C10.9891 22.1903 11.4472 21.7512 11.5876 21.6289C12.0921 21.1893 12.7678 21.1158 13.2885 21.2628L13.289 21.2633Z" fill="#0D1212"/>
<path d="M13.7478 23.9449C13.7052 23.9397 13.8446 23.5395 13.6288 23.3801C13.4444 23.244 13.1556 23.3986 13.0271 23.2649C12.9403 23.1748 12.9839 23.0136 13.0271 22.9031C13.0669 22.8879 13.2898 22.8059 13.5193 22.9031C13.7227 22.9889 13.7972 23.1587 13.8294 23.2322C13.9821 23.5802 13.7891 23.9501 13.7478 23.9449Z" fill="#5D554D"/>
<path d="M11.32 23.7919C11.3528 23.7838 11.2058 23.4486 11.3599 23.2921C11.4912 23.1583 11.7316 23.2679 11.8198 23.1408C11.8791 23.0554 11.8298 22.9189 11.7857 22.8269C11.753 22.8169 11.5709 22.7652 11.4006 22.8691C11.2494 22.9611 11.2072 23.1147 11.1892 23.1811C11.1029 23.496 11.2887 23.8004 11.3205 23.7923L11.32 23.7919Z" fill="#5D554D"/>
<path d="M12.6155 21.2352C11.9995 21.2594 11.5642 21.6696 11.4442 21.7924C11.2987 21.9408 11.2043 22.0878 11.145 22.1945C11.4789 21.9351 11.9549 21.6549 12.5567 21.5871C13.2073 21.5136 13.6966 21.7241 13.7194 21.6516C13.7436 21.5743 13.2239 21.2115 12.6155 21.2357V21.2352Z" fill="white"/>
<path d="M12.606 24.4494C12.4823 24.8567 12.3737 25.2721 12.2812 25.6941C12.2096 25.2683 12.1541 24.8363 12.1157 24.3996L12.606 24.4494Z" fill="#0D1212"/>
<path d="M20.9102 40C15.5679 40 10.5457 37.9197 6.76785 34.1423C2.99044 30.3649 0.910156 25.3422 0.910156 20C0.910156 14.6578 2.99044 9.63558 6.76785 5.85769C10.5457 2.08028 15.5684 0 20.9102 0C26.2519 0 31.2746 2.08028 35.0525 5.85769C38.8299 9.63511 40.9102 14.6578 40.9102 20C40.9102 25.3422 38.8299 30.3644 35.0525 34.1423C31.275 37.9197 26.2524 40 20.9102 40ZM20.9102 2.71048C16.292 2.71048 11.9503 4.50909 8.68454 7.77438C5.41877 11.0401 3.62064 15.3818 3.62064 20C3.62064 24.6182 5.41925 28.9599 8.68454 32.2256C11.9503 35.4914 16.292 37.2895 20.9102 37.2895C25.5283 37.2895 29.87 35.4909 33.1358 32.2256C36.4015 28.9599 38.1997 24.6182 38.1997 20C38.1997 15.3818 36.4011 11.0401 33.1358 7.77438C29.87 4.50862 25.5283 2.71048 20.9102 2.71048Z" fill="#FEBB54"/>
<path d="M32.2846 6.97736L31.8929 6.66297L31.6976 6.50602C31.6316 6.45433 31.5629 6.40691 31.496 6.35665L31.0915 6.06075C30.9554 5.96402 30.8141 5.87487 30.6757 5.78145C30.4016 5.59035 30.1119 5.42438 29.8273 5.25036C29.7567 5.20578 29.6832 5.16642 29.6102 5.12659L29.3906 5.00662L29.1711 4.88665L29.0615 4.8269L28.9491 4.7719C27.7584 4.17489 26.5085 3.69453 25.2144 3.39057L24.7298 3.27629L24.2409 3.18193L23.9967 3.13499L23.7506 3.09895L23.2584 3.02687C22.5992 2.95479 21.9382 2.89647 21.2753 2.89836C20.6128 2.88793 19.9509 2.92634 19.2922 2.98561C19.2097 2.99036 19.1277 3.00363 19.0456 3.01407L18.7995 3.04631C18.6359 3.06955 18.4709 3.08567 18.3083 3.11412L17.8203 3.20279L17.5766 3.24689C17.4955 3.26349 17.4154 3.28388 17.3347 3.3019L16.852 3.41428L16.7316 3.44274L16.6126 3.47688L16.3745 3.54469C16.2161 3.59068 16.0563 3.63289 15.8989 3.68268L15.4299 3.84201L15.1957 3.92167C15.1174 3.94775 15.0416 3.98094 14.9643 4.00987L14.5033 4.19006L14.3881 4.23511L14.2753 4.28538L14.0495 4.38685C13.8992 4.45514 13.748 4.52057 13.5986 4.59075C12.4117 5.16737 11.2921 5.88056 10.2674 6.70992C9.23981 7.53644 8.31277 8.48624 7.50143 9.52378C7.4009 9.65418 7.29752 9.78221 7.19937 9.91498L6.91532 10.3195L6.77307 10.5215C6.7247 10.5883 6.68392 10.6599 6.63887 10.7287L6.37522 11.1465C6.2837 11.2835 6.20878 11.4305 6.12627 11.5728L5.88396 12.0033L5.66251 12.4448C5.58901 12.5923 5.51219 12.7378 5.44865 12.8901C4.89906 14.0865 4.48651 15.3459 4.22239 16.6371C3.96538 17.9298 3.86248 19.2518 3.89757 20.5696L3.90231 20.8167C3.90468 20.8992 3.91274 20.9812 3.91748 21.0632L3.95115 21.5569L3.95969 21.6802C3.96348 21.7214 3.96917 21.7622 3.97344 21.803L4.00236 22.0486L4.06069 22.5399L4.14272 23.0278C4.1707 23.1905 4.19394 23.3536 4.23282 23.5143C4.30537 23.8358 4.36654 24.1607 4.45996 24.4774L4.58941 24.9549L4.74163 25.4258C4.83647 25.7421 4.96165 26.0479 5.07641 26.3571C5.13141 26.5131 5.19922 26.6634 5.26514 26.8147L5.46193 27.269C5.53258 27.4179 5.6075 27.5654 5.68005 27.7138L5.78959 27.9362C5.80809 27.9732 5.82563 28.0106 5.84507 28.0471L5.90529 28.1553C6.53075 29.3199 7.29373 30.4105 8.16435 31.4087C8.21651 31.4732 8.27389 31.5329 8.33031 31.5936L8.4996 31.7752C8.61293 31.8957 8.72389 32.0194 8.84007 32.1375C9.07717 32.3689 9.30905 32.606 9.55895 32.8246C9.80078 33.0518 10.0587 33.2604 10.3129 33.4743C10.4419 33.5791 10.5751 33.6777 10.706 33.7796L10.9033 33.9314L11.1062 34.0755C12.1812 34.8561 13.3544 35.5019 14.584 36.0145L15.0482 36.2004C15.2037 36.2601 15.3621 36.3128 15.5186 36.3697L15.7547 36.4531L15.9937 36.5271C16.1535 36.5755 16.3119 36.6281 16.4727 36.6727C17.1147 36.8567 17.7686 36.9985 18.4287 37.1132C17.7653 37.026 17.1038 36.9112 16.4513 36.7533C16.2877 36.7154 16.127 36.667 15.9648 36.6243L15.722 36.5584L15.4816 36.483C15.3218 36.4313 15.1606 36.3839 15.0017 36.3289L14.5275 36.1577L14.409 36.115L14.2923 36.0676L14.0586 35.9723C13.9025 35.9092 13.7465 35.8466 13.5948 35.7741L13.1358 35.5636L12.6858 35.3345C12.0902 35.0211 11.5055 34.6825 10.9507 34.2984L10.7406 34.1571L10.5367 34.0073C10.4016 33.9067 10.2636 33.809 10.1303 33.7057C9.86717 33.4947 9.59973 33.2879 9.3484 33.0622C9.0895 32.845 8.84766 32.6093 8.6006 32.3784C8.47968 32.2603 8.36398 32.137 8.24543 32.0171L8.06856 31.8355C8.00976 31.7748 7.94954 31.715 7.89501 31.6505C6.98313 30.6519 6.18886 29.5442 5.52642 28.3615C4.86112 27.1798 4.35469 25.9104 3.99193 24.6026C3.89282 24.2778 3.82644 23.9444 3.74867 23.6139C3.70742 23.4494 3.68181 23.281 3.65099 23.1141L3.56184 22.6129L3.4964 22.1079L3.46415 21.8551C3.45894 21.8129 3.45277 21.7712 3.44851 21.7285L3.43855 21.6014L3.39872 21.0936C3.39303 21.0087 3.38402 20.9243 3.3807 20.8394L3.37311 20.5848C3.32474 19.2276 3.43191 17.8639 3.69129 16.5295C3.95969 15.1965 4.38077 13.8939 4.94553 12.6568C5.01144 12.4998 5.09111 12.3495 5.16745 12.1977L5.39791 11.7425L5.64923 11.2987C5.73506 11.1517 5.8133 11.0004 5.90767 10.8591L6.18127 10.429C6.22775 10.3579 6.27042 10.2844 6.32021 10.2156L6.46721 10.0075L6.76169 9.59111C6.86316 9.45502 6.97033 9.32272 7.07465 9.18852L7.23208 8.98794C7.28377 8.9206 7.33688 8.85422 7.39331 8.79067L7.72714 8.40563L7.89406 8.21311L8.06998 8.02865L8.42183 7.6602C8.47921 7.59761 8.54086 7.53928 8.60297 7.48096L8.78791 7.3055C8.91167 7.18933 9.03307 7.0703 9.15873 6.95602L9.54519 6.62409C9.67465 6.51408 9.80173 6.40122 9.9383 6.30022C11.0029 5.45616 12.1627 4.73301 13.3895 4.15165C14.6191 3.57504 15.9179 3.15158 17.2451 2.87892C18.5724 2.60247 19.9314 2.49293 21.2824 2.53561C21.9586 2.54888 22.632 2.62333 23.301 2.71153L23.8004 2.79594L24.0498 2.83814L24.2973 2.89125L24.7919 2.99794C24.9555 3.03872 25.1186 3.0833 25.2813 3.12645C26.5853 3.47403 27.8395 3.99138 29.0198 4.63485C30.1996 5.2807 31.2907 6.0783 32.2841 6.97499L32.2846 6.97736Z" fill="#C77955"/>
<path d="M20.9102 40L19.9276 39.9976L18.9456 39.9426C18.6193 39.9104 18.2931 39.8739 17.9669 39.8397C17.6425 39.7918 17.3182 39.7392 16.9933 39.6889C15.7012 39.4518 14.4303 39.0848 13.2102 38.5898C11.9887 38.0975 10.8203 37.474 9.7216 36.7456C8.62431 36.0149 7.60196 35.1723 6.6678 34.2424C5.73743 33.3082 4.89574 32.2854 4.16454 31.1886C3.43665 30.0899 2.81214 28.9215 2.3204 27.6999L1.9733 26.7757C1.87324 26.4623 1.77082 26.1493 1.67408 25.8354C1.59062 25.5172 1.50527 25.1995 1.42371 24.8813C1.35637 24.5594 1.28572 24.2388 1.22123 23.9168C1.17096 23.592 1.11833 23.2681 1.07043 22.9433C1.03629 22.6166 0.999779 22.2908 0.967534 21.9646L0.912527 20.9825L0.910156 20L0.955679 20.9806L1.04293 21.9575L1.17713 22.9281C1.23498 23.2496 1.29805 23.5697 1.35827 23.8903C1.62619 25.1673 2.01882 26.4163 2.52573 27.6155C3.03643 28.8133 3.65668 29.9633 4.38836 31.0392C5.11624 32.1166 5.94845 33.1237 6.86933 34.0418C7.78737 34.9627 8.79455 35.7944 9.87191 36.5228C10.9474 37.254 12.0978 37.8751 13.2956 38.3854C14.4948 38.8923 15.7438 39.2849 17.0208 39.5528C17.3414 39.6131 17.6615 39.6757 17.983 39.734L18.9536 39.8677L19.9305 39.9545L20.9111 39.9995L20.9102 40Z" fill="#FCE8D4"/>
<path d="M21.1406 0.0351562L22.1231 0.0498562L23.1043 0.116717C23.43 0.152756 23.7558 0.193536 24.0816 0.231472C24.4054 0.283159 24.7288 0.340062 25.0532 0.39412C26.3425 0.647338 27.6086 1.02954 28.8225 1.53977C30.0379 2.04668 31.1987 2.68494 32.2879 3.42658C33.3762 4.17059 34.3881 5.02555 35.3109 5.9673C36.2294 6.91284 37.0588 7.94563 37.7767 9.05145C38.4913 10.1587 39.1011 11.3347 39.5777 12.5624L39.9134 13.4908C40.0097 13.8057 40.1078 14.1196 40.2013 14.4349C40.2809 14.7541 40.3625 15.0727 40.4398 15.3919C40.5033 15.7143 40.5697 16.0363 40.6304 16.3592C40.6764 16.6845 40.7252 17.0093 40.7689 17.3346C40.7992 17.6618 40.8315 17.9881 40.8594 18.3148L40.9021 19.2973L40.8926 20.2798L40.8594 19.2987L40.7845 18.321L40.6626 17.3489C40.6086 17.0269 40.5498 16.7059 40.4934 16.3848C40.2411 15.1045 39.8641 13.8507 39.3719 12.6453C38.8759 11.4414 38.2699 10.2839 37.5515 9.19939C36.8369 8.11302 36.017 7.09588 35.108 6.16646C34.2013 5.2342 33.2045 4.39014 32.1362 3.6485C31.0697 2.90402 29.9274 2.26908 28.7358 1.74367C27.5427 1.22206 26.2989 0.814254 25.0252 0.530687C24.7056 0.466671 24.386 0.39981 24.0654 0.337691L23.0967 0.19164L22.1213 0.0925335L21.1411 0.0351562H21.1406Z" fill="#FCE8D4"/>
<path d="M57.7114 27.9802V12.523H63.3283C64.591 12.523 65.694 12.7262 66.6374 13.1326C67.5953 13.539 68.3936 14.0905 69.0322 14.7872C69.6708 15.4838 70.1497 16.3038 70.469 17.2472C70.7883 18.1761 70.948 19.1703 70.948 20.2298C70.948 21.4054 70.7666 22.4722 70.4037 23.4301C70.0554 24.3735 69.5474 25.1863 68.8798 25.8684C68.2122 26.5361 67.4066 27.0586 66.4632 27.4359C65.5344 27.7988 64.4894 27.9802 63.3283 27.9802H57.7114ZM67.9219 20.2298C67.9219 19.4896 67.8203 18.8075 67.6171 18.1834C67.4139 17.5593 67.1164 17.0223 66.7245 16.5723C66.3326 16.1224 65.8464 15.7741 65.2659 15.5274C64.6998 15.2806 64.054 15.1573 63.3283 15.1573H60.7158V25.3459H63.3283C64.0685 25.3459 64.7216 25.2153 65.2876 24.9541C65.8682 24.6928 66.3471 24.3372 66.7245 23.8873C67.1164 23.4229 67.4139 22.8786 67.6171 22.2545C67.8203 21.6304 67.9219 20.9555 67.9219 20.2298Z" fill="white"/>
<path d="M78.2808 28.1979C77.3519 28.1979 76.5174 28.0382 75.7772 27.7189C75.037 27.3996 74.4056 26.9715 73.8831 26.4345C73.3751 25.8829 72.9833 25.2516 72.7075 24.5404C72.4318 23.8292 72.2939 23.0818 72.2939 22.298C72.2939 21.4998 72.4318 20.7451 72.7075 20.0339C72.9833 19.3227 73.3751 18.6986 73.8831 18.1616C74.4056 17.6101 75.037 17.1747 75.7772 16.8554C76.5174 16.5361 77.3519 16.3764 78.2808 16.3764C79.2097 16.3764 80.037 16.5361 80.7627 16.8554C81.5029 17.1747 82.127 17.6101 82.6349 18.1616C83.1574 18.6986 83.5566 19.3227 83.8323 20.0339C84.1081 20.7451 84.246 21.4998 84.246 22.298C84.246 23.0818 84.1081 23.8292 83.8323 24.5404C83.5566 25.2516 83.1647 25.8829 82.6567 26.4345C82.1487 26.9715 81.5246 27.3996 80.7844 27.7189C80.0442 28.0382 79.2097 28.1979 78.2808 28.1979ZM75.2982 22.298C75.2982 22.806 75.3708 23.2705 75.5159 23.6914C75.6756 24.0977 75.886 24.4533 76.1473 24.7581C76.423 25.0629 76.7423 25.3024 77.1052 25.4766C77.468 25.6362 77.8599 25.716 78.2808 25.716C78.7017 25.716 79.0936 25.6362 79.4564 25.4766C79.8193 25.3024 80.1313 25.0629 80.3926 24.7581C80.6683 24.4533 80.8788 24.0905 81.0239 23.6696C81.1836 23.2487 81.2634 22.7842 81.2634 22.2763C81.2634 21.7828 81.1836 21.3256 81.0239 20.9047C80.8788 20.4838 80.6683 20.121 80.3926 19.8162C80.1313 19.5114 79.8193 19.2792 79.4564 19.1195C79.0936 18.9454 78.7017 18.8583 78.2808 18.8583C77.8599 18.8583 77.468 18.9454 77.1052 19.1195C76.7423 19.2937 76.423 19.5332 76.1473 19.8379C75.886 20.1427 75.6756 20.5056 75.5159 20.9265C75.3708 21.3474 75.2982 21.8046 75.2982 22.298Z" fill="white"/>
<path d="M90.678 28.0455C89.9088 28.0455 89.2121 27.8931 88.588 27.5883C87.9639 27.2835 87.4197 26.8699 86.9552 26.3474C86.5053 25.8104 86.157 25.1935 85.9102 24.4969C85.6635 23.8002 85.5401 23.06 85.5401 22.2763C85.5401 21.449 85.6708 20.6797 85.932 19.9686C86.1933 19.2574 86.5561 18.6333 87.0205 18.0963C87.485 17.5593 88.0438 17.1384 88.6969 16.8336C89.35 16.5288 90.0684 16.3764 90.8522 16.3764C91.7375 16.3764 92.514 16.5796 93.1816 16.986C93.8493 17.3779 94.4008 17.9076 94.8362 18.5752V16.5723H97.3834V27.4359C97.3834 28.2777 97.2237 29.0324 96.9044 29.7001C96.5851 30.3677 96.1425 30.9337 95.5764 31.3982C95.0249 31.8626 94.3573 32.2182 93.5735 32.4649C92.8043 32.7117 91.9625 32.835 91.0481 32.835C89.7999 32.835 88.7477 32.6246 87.8914 32.2037C87.0496 31.7973 86.3239 31.2168 85.7143 30.462L87.3036 28.9163C87.739 29.4533 88.2832 29.8742 88.9364 30.179C89.604 30.4838 90.3079 30.6362 91.0481 30.6362C91.498 30.6362 91.9262 30.5709 92.3326 30.4403C92.7535 30.3242 93.1236 30.1355 93.4429 29.8742C93.7622 29.613 94.0089 29.2792 94.1831 28.8728C94.3718 28.4664 94.4661 27.9874 94.4661 27.4359V25.9991C94.0888 26.6522 93.559 27.1602 92.8769 27.523C92.1947 27.8713 91.4618 28.0455 90.678 28.0455ZM91.6577 25.716C91.977 25.716 92.2818 25.6652 92.5721 25.5636C92.8623 25.462 93.1308 25.3242 93.3776 25.15C93.6243 24.9758 93.842 24.7726 94.0307 24.5404C94.2194 24.3082 94.3645 24.0615 94.4661 23.8002V21.0789C94.2049 20.4112 93.7912 19.8742 93.2252 19.4678C92.6737 19.0615 92.0931 18.8583 91.4835 18.8583C91.0336 18.8583 90.6272 18.9599 90.2644 19.1631C89.9015 19.3517 89.5895 19.613 89.3282 19.9468C89.067 20.2661 88.8638 20.6362 88.7187 21.0571C88.588 21.478 88.5227 21.9134 88.5227 22.3633C88.5227 22.8278 88.6025 23.2632 88.7622 23.6696C88.9219 24.076 89.1396 24.4316 89.4153 24.7364C89.7056 25.0411 90.0394 25.2806 90.4168 25.4548C90.7941 25.629 91.2078 25.716 91.6577 25.716Z" fill="white"/>
<path d="M105.303 28.1979C104.389 28.1979 103.562 28.0455 102.821 27.7407C102.081 27.4214 101.45 26.9932 100.927 26.4562C100.405 25.9192 99.9985 25.2951 99.7083 24.584C99.4325 23.8728 99.2946 23.1253 99.2946 22.3416C99.2946 21.5288 99.4325 20.7668 99.7083 20.0557C99.984 19.33 100.383 18.6986 100.906 18.1616C101.428 17.6101 102.059 17.1747 102.8 16.8554C103.554 16.5361 104.396 16.3764 105.325 16.3764C106.254 16.3764 107.081 16.5361 107.807 16.8554C108.547 17.1747 109.171 17.6028 109.679 18.1398C110.202 18.6768 110.594 19.3009 110.855 20.0121C111.131 20.7233 111.268 21.4635 111.268 22.2327C111.268 22.4214 111.261 22.6028 111.247 22.777C111.247 22.9512 111.232 23.0963 111.203 23.2124H102.386C102.43 23.6623 102.538 24.0615 102.713 24.4098C102.887 24.7581 103.112 25.0557 103.388 25.3024C103.663 25.5491 103.975 25.7378 104.324 25.8684C104.672 25.9991 105.035 26.0644 105.412 26.0644C105.993 26.0644 106.537 25.9265 107.045 25.6507C107.567 25.3604 107.923 24.9831 108.112 24.5186L110.615 25.2153C110.194 26.0861 109.52 26.8046 108.591 27.3706C107.676 27.9221 106.581 28.1979 105.303 28.1979ZM108.264 21.3184C108.192 20.462 107.872 19.7799 107.306 19.2719C106.755 18.7494 106.08 18.4882 105.282 18.4882C104.89 18.4882 104.52 18.5607 104.171 18.7059C103.837 18.8365 103.54 19.0252 103.279 19.2719C103.017 19.5186 102.8 19.8162 102.626 20.1645C102.466 20.5128 102.372 20.8975 102.343 21.3184H108.264Z" fill="white"/>
<path d="M125.828 27.9802V17.748L121.844 25.3677H120.211L116.227 17.748V27.9802H113.222V12.523H116.444L121.016 21.3184L125.632 12.523H128.832V27.9802H125.828Z" fill="white"/>
<path d="M131.776 27.9802V16.5723H134.693V27.9802H131.776ZM131.776 14.9831V12.0876H134.693V14.9831H131.776Z" fill="white"/>
<path d="M147.927 27.9802H145.01V21.5796C145.01 20.6652 144.851 19.9976 144.531 19.5767C144.212 19.1558 143.769 18.9454 143.203 18.9454C142.913 18.9454 142.615 19.0034 142.311 19.1195C142.006 19.2356 141.716 19.4025 141.44 19.6202C141.179 19.8234 140.939 20.0702 140.721 20.3604C140.504 20.6507 140.344 20.97 140.242 21.3184V27.9802H137.325V16.5723H139.959V18.6841C140.38 17.9584 140.99 17.3924 141.788 16.986C142.586 16.5796 143.486 16.3764 144.488 16.3764C145.199 16.3764 145.779 16.507 146.229 16.7683C146.679 17.0295 147.028 17.3706 147.274 17.7915C147.521 18.2124 147.688 18.6914 147.775 19.2284C147.877 19.7654 147.927 20.3096 147.927 20.8612V27.9802Z" fill="white"/>
<path d="M155.754 28.1979C154.84 28.1979 154.013 28.0455 153.272 27.7407C152.532 27.4214 151.901 26.9932 151.378 26.4562C150.856 25.9192 150.45 25.2951 150.159 24.584C149.883 23.8728 149.746 23.1253 149.746 22.3416C149.746 21.5288 149.883 20.7668 150.159 20.0557C150.435 19.33 150.834 18.6986 151.357 18.1616C151.879 17.6101 152.51 17.1747 153.251 16.8554C154.005 16.5361 154.847 16.3764 155.776 16.3764C156.705 16.3764 157.532 16.5361 158.258 16.8554C158.998 17.1747 159.622 17.6028 160.13 18.1398C160.653 18.6768 161.045 19.3009 161.306 20.0121C161.582 20.7233 161.719 21.4635 161.719 22.2327C161.719 22.4214 161.712 22.6028 161.698 22.777C161.698 22.9512 161.683 23.0963 161.654 23.2124H152.837C152.881 23.6623 152.989 24.0615 153.164 24.4098C153.338 24.7581 153.563 25.0557 153.839 25.3024C154.114 25.5491 154.426 25.7378 154.775 25.8684C155.123 25.9991 155.486 26.0644 155.863 26.0644C156.444 26.0644 156.988 25.9265 157.496 25.6507C158.018 25.3604 158.374 24.9831 158.563 24.5186L161.066 25.2153C160.645 26.0861 159.971 26.8046 159.042 27.3706C158.127 27.9221 157.032 28.1979 155.754 28.1979ZM158.715 21.3184C158.643 20.462 158.323 19.7799 157.757 19.2719C157.206 18.7494 156.531 18.4882 155.733 18.4882C155.341 18.4882 154.971 18.5607 154.622 18.7059C154.288 18.8365 153.991 19.0252 153.73 19.2719C153.468 19.5186 153.251 19.8162 153.077 20.1645C152.917 20.5128 152.823 20.8975 152.794 21.3184H158.715Z" fill="white"/>
</svg>
