<svg width="29" height="50" viewBox="0 0 29 50" fill="none" xmlns="http://www.w3.org/2000/svg">
<path d="M27.6803 1.10058C28.385 1.80549 28.7809 2.76143 28.7809 3.75817C28.7809 4.75492 28.385 5.71086 27.6803 6.41577L9.07336 25.0227L27.6803 43.6296C28.365 44.3386 28.7439 45.2881 28.7353 46.2737C28.7268 47.2593 28.3314 48.2021 27.6345 48.899C26.9375 49.596 25.9947 49.9913 25.0092 49.9999C24.0236 50.0084 23.074 49.6295 22.3651 48.9448L1.10058 27.6803C0.395877 26.9754 0 26.0194 0 25.0227C0 24.0259 0.395877 23.07 1.10058 22.3651L22.3651 1.10058C23.07 0.395878 24.0259 0 25.0227 0C26.0194 0 26.9754 0.395878 27.6803 1.10058Z" fill="#9DB0BA"/>
</svg>
