<svg width="29" height="50" viewBox="0 0 29 50" fill="none" xmlns="http://www.w3.org/2000/svg">
<path d="M1.10058 1.10058C0.395878 1.80549 0 2.76143 0 3.75817C0 4.75492 0.395878 5.71086 1.10058 6.41577L19.7075 25.0227L1.10058 43.6296C0.41585 44.3386 0.0369647 45.2881 0.0455292 46.2737C0.0540937 47.2593 0.449422 48.2021 1.14637 48.899C1.84331 49.596 2.78611 49.9913 3.7717 49.9999C4.75729 50.0084 5.70681 49.6295 6.41576 48.9448L27.6803 27.6803C28.385 26.9754 28.7809 26.0194 28.7809 25.0227C28.7809 24.0259 28.385 23.07 27.6803 22.3651L6.41576 1.10058C5.71085 0.395878 4.75492 0 3.75817 0C2.76143 0 1.80549 0.395878 1.10058 1.10058Z" fill="#9DB0BA"/>
</svg>
