<svg width="12" height="12" viewBox="0 0 12 12" fill="none" xmlns="http://www.w3.org/2000/svg">
<g clip-path="url(#clip0_15_6133)">
<path d="M5.49986 11.4923C2.46745 11.4923 0 9.02494 0 5.99253C0 2.96013 2.46745 0.492676 5.49986 0.492676C6.55433 0.492676 7.58024 0.793142 8.46672 1.36212C8.64075 1.47418 8.69174 1.70617 8.57969 1.88066C8.46727 2.05516 8.23573 2.1056 8.06124 1.99364C7.29625 1.5021 6.41032 1.24265 5.49986 1.24265C2.88089 1.24265 0.749977 3.37357 0.749977 5.99253C0.749977 8.61141 2.88089 10.7423 5.49986 10.7423C8.11873 10.7423 10.2496 8.61141 10.2496 5.99253C10.2496 5.83598 10.2421 5.68099 10.2277 5.52856C10.2077 5.32202 10.3587 5.13902 10.5647 5.11906C10.7717 5.10001 10.9541 5.25006 10.9742 5.45605C10.9911 5.63256 10.9996 5.81154 10.9996 5.99253C10.9996 9.02494 8.53227 11.4923 5.49986 11.4923Z" fill="#005686"/>
<path d="M6.12474 7.24233C6.02879 7.24233 5.93275 7.2058 5.85979 7.13238L3.60986 4.88245C3.46338 4.73588 3.46338 4.49839 3.60986 4.35192C3.75634 4.20544 3.99382 4.20544 4.1403 4.35192L6.12528 6.3369L11.3596 1.10254C11.5061 0.956056 11.7436 0.956056 11.8901 1.10254C12.0366 1.24902 12.0366 1.4865 11.8901 1.63298L6.39023 7.13283C6.31672 7.2058 6.22077 7.24233 6.12474 7.24233Z" fill="#005686"/>
</g>
<defs>
<clipPath id="clip0_15_6133">
<rect width="12" height="12" fill="white"/>
</clipPath>
</defs>
</svg>
