<svg width="18" height="16" viewBox="0 0 18 16" fill="none" xmlns="http://www.w3.org/2000/svg">
<path d="M9.85821 6.354C9.41077 6.354 9.06406 6.70072 9.06406 7.12878C9.06406 7.55684 9.41077 7.90356 9.85821 7.90356C10.2669 7.90356 10.6136 7.55684 10.6136 7.12878C10.6136 6.70072 10.2669 6.354 9.85821 6.354ZM4.43477 6.354C3.98734 6.354 3.64062 6.70072 3.64062 7.12878C3.64062 7.55684 3.98734 7.90356 4.43477 7.90356C4.84347 7.90356 5.19018 7.55684 5.19018 7.12878C5.19018 6.70072 4.84347 6.354 4.43477 6.354Z" fill="#005686"/>
<path d="M16.0764 4.88196C15.1447 3.60358 13.8431 2.74939 12.4155 2.36393V2.36587C12.0843 1.99785 11.7105 1.65889 11.2921 1.35673C8.12134 -0.948235 3.67024 -0.245125 1.3556 2.92565C-0.509674 5.50178 -0.430259 8.96697 1.47182 11.4288L1.48731 13.9972C1.48731 14.0592 1.497 14.1212 1.51637 14.1793C1.61902 14.5066 1.96767 14.6868 2.29308 14.5841L4.74525 13.8113C5.39412 14.0418 6.0643 14.1735 6.73061 14.2103L6.72093 14.218C8.44674 15.4751 10.7091 15.8528 12.7836 15.1671L15.2454 15.969C15.3074 15.9884 15.3713 16 15.4372 16C15.78 16 16.057 15.723 16.057 15.3802V12.7847C17.7634 10.4681 17.808 7.26633 16.0764 4.88196ZM5.01642 12.436L4.78399 12.3392L2.86641 12.9396L2.84704 10.9252L2.69209 10.7509C1.05344 8.75197 0.944969 5.87173 2.47903 3.75853C4.34624 1.1979 7.9257 0.632309 10.4786 2.48015C13.0392 4.34155 13.6068 7.91521 11.757 10.4603C10.2055 12.589 7.42791 13.3754 5.01642 12.436ZM14.798 12.1067L14.643 12.3004L14.6624 14.3149L12.7642 13.6757L12.5317 13.7725C11.4471 14.1754 10.2907 14.2083 9.21958 13.9081L9.21571 13.9062C10.6471 13.4665 11.9449 12.5755 12.8804 11.2932C14.3602 9.25363 14.6004 6.69106 13.7404 4.50619L13.752 4.51394C14.1975 4.83353 14.6062 5.23254 14.9529 5.71484C16.3591 7.64404 16.2797 10.2705 14.798 12.1067Z" fill="#005686"/>
<path d="M7.14766 6.354C6.70023 6.354 6.35352 6.70072 6.35352 7.12878C6.35352 7.55684 6.70023 7.90356 7.14766 7.90356C7.55636 7.90356 7.90307 7.55684 7.90307 7.12878C7.90307 6.70072 7.55636 6.354 7.14766 6.354Z" fill="#005686"/>
</svg>
