<svg width="14" height="16" viewBox="0 0 14 16" fill="none" xmlns="http://www.w3.org/2000/svg">
<path d="M13.0211 2.78371C12.9019 2.14526 12.5224 1.83044 12.1791 1.70672C11.8087 1.57297 11.0578 1.4343 10.1144 1.32308C9.35532 1.23378 8.4635 1.24094 7.9246 1.25754C7.85987 0.814698 7.54915 0.409959 7.20155 0.269857C6.27532 -0.10252 4.84419 -0.0130102 4.47673 0.0900181C4.18485 0.171539 3.86164 0.339088 3.6818 0.596762C3.56115 0.768817 3.48291 0.989416 3.4823 1.29748C3.4823 1.47199 3.48721 1.88246 3.49151 2.24767C3.49602 2.6139 3.50073 2.94122 3.50073 2.94368C3.50057 3.10057 3.43817 3.25099 3.32723 3.36192C3.21629 3.47286 3.06587 3.53526 2.90898 3.53542H1.40719C1.08684 3.53542 0.842068 3.5895 0.65506 3.6743C0.488037 3.74746 0.343066 3.86306 0.234549 4.0096C0.0340229 4.27833 -0.00100267 4.61097 2.14636e-05 4.95017C2.14636e-05 4.95017 0.00288908 5.22709 0.0696629 5.76354C0.125171 6.17852 0.575177 9.07806 1.00265 9.95943C1.16836 10.3023 1.27896 10.4453 1.60444 10.5962C2.32994 10.9072 3.9872 11.2527 4.7637 11.3516C5.53897 11.4508 6.02564 11.6595 6.31568 11.0512C6.31649 11.0499 6.37364 10.9 6.4523 10.6804C6.70403 9.91765 6.73905 9.24049 6.73905 8.75095C6.73905 8.70117 6.81197 8.69872 6.81197 8.75095C6.81197 9.0969 6.74581 10.3203 7.6704 10.6487C8.0352 10.7781 8.79245 10.8934 9.56158 10.9836C10.2572 11.0637 10.7619 11.3377 10.7619 13.1218C10.7619 14.2076 10.5339 14.3563 9.3418 14.3563C8.37522 14.3563 8.00694 14.3812 8.00694 13.6136C8.00694 12.9933 8.6208 13.0581 9.07552 13.0581C9.27871 13.0581 9.13124 12.9071 9.13124 12.5243C9.13124 12.1433 9.36945 11.9233 9.14414 11.9176C7.57147 11.8744 6.64606 11.9155 6.64606 13.8827C6.64606 15.6682 7.32937 16 9.56158 16C11.3116 16 11.9286 15.9426 12.6512 13.7004C12.7942 13.2576 13.1399 11.9069 13.3495 9.63887C13.482 8.20447 13.2251 3.87626 13.0211 2.78371ZM9.97041 7.56786C9.76363 7.56009 9.55659 7.57258 9.35224 7.60514C9.40714 7.16415 9.58882 6.6234 10.2332 6.64614C10.9466 6.67051 11.0468 7.34481 11.0492 7.80178C10.7483 7.66741 10.376 7.582 9.97041 7.56786Z" fill="white"/>
</svg>
