<svg width="20" height="16" viewBox="0 0 20 16" fill="none" xmlns="http://www.w3.org/2000/svg">
<path d="M19.6888 1.89415C18.9516 2.22073 18.1697 2.43499 17.369 2.52979C18.2123 2.02516 18.8435 1.23109 19.1447 0.295579C18.352 0.766187 17.4845 1.09758 16.5799 1.27538C16.202 0.872266 15.7453 0.551064 15.2381 0.331681C14.7309 0.112297 14.1841 -0.000594251 13.6315 2.35237e-06C11.4009 2.35237e-06 9.59217 1.80823 9.59217 4.03938C9.59217 4.35566 9.62797 4.66428 9.697 4.96011C6.33981 4.79161 3.36359 3.18333 1.37126 0.739199C1.01204 1.35568 0.823274 2.05663 0.824341 2.77014C0.823812 3.43519 0.987568 4.09007 1.30106 4.6766C1.61455 5.26312 2.06807 5.76313 2.62132 6.13219C1.97998 6.11182 1.35277 5.9386 0.791869 5.62695C0.791357 5.64382 0.791357 5.66044 0.791357 5.67783C0.791357 7.63436 2.18358 9.26694 4.03119 9.63845C3.43627 9.79951 2.8125 9.82311 2.20711 9.70749C2.72104 11.3119 4.21273 12.4802 5.98031 12.5129C4.54945 13.6358 2.78254 14.2448 0.963692 14.2421C0.637688 14.2421 0.316287 14.2232 0 14.1856C1.84693 15.3723 3.99646 16.0022 6.19176 16C13.6216 16 17.6845 9.8453 17.6845 4.50805C17.6845 4.33316 17.6804 4.15853 17.6727 3.98491C18.4639 3.41368 19.1467 2.70562 19.6888 1.89415Z" fill="white"/>
</svg>
